<svg width="25" height="25" viewBox="0 0 25 25" fill="none" xmlns="http://www.w3.org/2000/svg">
<g clip-path="url(#clip0_2003_4797)">
<path d="M21.8049 6.07383L15.9457 0.2146C15.8089 0.0777832 15.6223 0 15.4277 0H5.17383C3.96226 0 2.97656 0.985693 2.97656 2.19727V22.8027C2.97656 24.0143 3.96226 25 5.17383 25H19.8223C21.0338 25 22.0195 24.0143 22.0195 22.8027V6.5918C22.0195 6.39209 21.9357 6.20454 21.8049 6.07383ZM16.1602 2.50063L19.5189 5.85938H16.8926C16.4887 5.85938 16.1602 5.53081 16.1602 5.12695V2.50063ZM19.8223 23.5352H5.17383C4.76997 23.5352 4.44141 23.2066 4.44141 22.8027V2.19727C4.44141 1.79341 4.76997 1.46484 5.17383 1.46484H14.6953V5.12695C14.6953 6.33853 15.681 7.32422 16.8926 7.32422H20.5547V22.8027C20.5547 23.2066 20.2261 23.5352 19.8223 23.5352Z" fill="url(#paint0_linear_2003_4797)"/>
<path d="M16.8926 10.3516H8.10352C7.69902 10.3516 7.37109 10.6795 7.37109 11.084C7.37109 11.4885 7.69902 11.8164 8.10352 11.8164H16.8926C17.2971 11.8164 17.625 11.4885 17.625 11.084C17.625 10.6795 17.2971 10.3516 16.8926 10.3516Z" fill="url(#paint1_linear_2003_4797)"/>
<path d="M16.8926 13.2812H8.10352C7.69902 13.2812 7.37109 13.6092 7.37109 14.0137C7.37109 14.4182 7.69902 14.7461 8.10352 14.7461H16.8926C17.2971 14.7461 17.625 14.4182 17.625 14.0137C17.625 13.6092 17.2971 13.2812 16.8926 13.2812Z" fill="url(#paint2_linear_2003_4797)"/>
<path d="M16.8926 16.2109H8.10352C7.69902 16.2109 7.37109 16.5389 7.37109 16.9434C7.37109 17.3479 7.69902 17.6758 8.10352 17.6758H16.8926C17.2971 17.6758 17.625 17.3479 17.625 16.9434C17.625 16.5389 17.2971 16.2109 16.8926 16.2109Z" fill="url(#paint3_linear_2003_4797)"/>
<path d="M13.9629 19.1406H8.10352C7.69902 19.1406 7.37109 19.4686 7.37109 19.873C7.37109 20.2775 7.69902 20.6055 8.10352 20.6055H13.9629C14.3674 20.6055 14.6953 20.2775 14.6953 19.873C14.6953 19.4686 14.3674 19.1406 13.9629 19.1406Z" fill="url(#paint4_linear_2003_4797)"/>
</g>
<defs>
<linearGradient id="paint0_linear_2003_4797" x1="12.498" y1="0" x2="12.498" y2="25" gradientUnits="userSpaceOnUse">
<stop stop-color="#00E4D5"/>
<stop offset="1" stop-color="#00B1E8"/>
</linearGradient>
<linearGradient id="paint1_linear_2003_4797" x1="12.498" y1="10.3516" x2="12.498" y2="11.8164" gradientUnits="userSpaceOnUse">
<stop stop-color="#00E4D5"/>
<stop offset="1" stop-color="#00B1E8"/>
</linearGradient>
<linearGradient id="paint2_linear_2003_4797" x1="12.498" y1="13.2812" x2="12.498" y2="14.7461" gradientUnits="userSpaceOnUse">
<stop stop-color="#00E4D5"/>
<stop offset="1" stop-color="#00B1E8"/>
</linearGradient>
<linearGradient id="paint3_linear_2003_4797" x1="12.498" y1="16.2109" x2="12.498" y2="17.6758" gradientUnits="userSpaceOnUse">
<stop stop-color="#00E4D5"/>
<stop offset="1" stop-color="#00B1E8"/>
</linearGradient>
<linearGradient id="paint4_linear_2003_4797" x1="11.0332" y1="19.1406" x2="11.0332" y2="20.6055" gradientUnits="userSpaceOnUse">
<stop stop-color="#00E4D5"/>
<stop offset="1" stop-color="#00B1E8"/>
</linearGradient>
<clipPath id="clip0_2003_4797">
<rect width="25" height="25" fill="white"/>
</clipPath>
</defs>
</svg>
