<svg width="13" height="18" viewBox="0 0 13 18" fill="none" xmlns="http://www.w3.org/2000/svg">
<path d="M0.614635 17.2374C0.74944 17.3075 0.900795 17.3396 1.05245 17.3302C1.20411 17.3208 1.35035 17.2703 1.47547 17.1841L12.3088 9.68407C12.4195 9.60737 12.51 9.505 12.5724 9.3857C12.6349 9.2664 12.6676 9.13374 12.6676 8.99907C12.6676 8.8644 12.6349 8.73174 12.5724 8.61244C12.51 8.49314 12.4195 8.39076 12.3088 8.31407L1.47547 0.814068C1.35045 0.727562 1.20414 0.676905 1.0524 0.667584C0.900651 0.658262 0.749246 0.69063 0.614577 0.761184C0.479907 0.831737 0.367105 0.937787 0.288383 1.06785C0.209661 1.19791 0.16802 1.34704 0.167969 1.49907V16.4991C0.167944 16.6512 0.209555 16.8004 0.288291 16.9306C0.367028 17.0607 0.479887 17.1668 0.614635 17.2374Z" fill="#626262"/>
</svg>
