<svg width="13" height="18" viewBox="0 0 13 18" fill="none" xmlns="http://www.w3.org/2000/svg">
<path d="M0.693418 9.6849L11.5268 17.1849C11.6518 17.2714 11.7981 17.3221 11.9498 17.3314C12.1016 17.3407 12.253 17.3083 12.3876 17.2378C12.5223 17.1672 12.6351 17.0612 12.7138 16.9311C12.7926 16.8011 12.8342 16.6519 12.8343 16.4999V1.4999C12.8344 1.3478 12.7928 1.19857 12.7142 1.06839C12.6355 0.938203 12.5227 0.832031 12.388 0.761377C12.2533 0.690724 12.1019 0.658283 11.95 0.667571C11.7982 0.676859 11.6518 0.727522 11.5268 0.814068L0.693418 8.31407C0.583051 8.39109 0.492916 8.49363 0.430677 8.61296C0.368439 8.7323 0.335937 8.8649 0.335938 8.99948C0.335937 9.13407 0.368439 9.26667 0.430677 9.386C0.492916 9.50534 0.583051 9.60787 0.693418 9.6849Z" fill="#626262"/>
</svg>
