<svg width="20" height="20" viewBox="0 0 20 20" fill="none" xmlns="http://www.w3.org/2000/svg">
<g clip-path="url(#clip0_1834_4824)">
<path d="M19.7501 5.41843L13.8907 1.31686C13.7117 1.19159 13.4779 1.17624 13.2841 1.27718C13.0903 1.37808 12.9688 1.57843 12.9688 1.7969V3.55472H4.10156C3.77797 3.55472 3.51562 3.81706 3.51562 4.14065V7.65628C3.51562 7.97987 3.77797 8.24222 4.10156 8.24222H12.9688V10C12.9688 10.2185 13.0903 10.4189 13.2841 10.5198C13.4773 10.6204 13.7112 10.6057 13.8907 10.4801L19.7501 6.37851C19.9067 6.26886 20 6.08968 20 5.89847C20 5.70726 19.9067 5.52812 19.7501 5.41843ZM14.1406 8.87464V7.65628C14.1406 7.33269 13.8783 7.07034 13.5547 7.07034H4.6875V4.72659H13.5547C13.8783 4.72659 14.1406 4.46425 14.1406 4.14065V2.92229L18.3923 5.89847L14.1406 8.87464ZM15.8984 11.7578H7.03125V10C7.03125 9.78155 6.90969 9.5812 6.7159 9.4803C6.52207 9.37941 6.28832 9.39472 6.1093 9.51999L0.249922 13.6216C0.0932812 13.7312 0 13.9104 0 14.1016C0 14.2928 0.0932812 14.4719 0.249922 14.5816L6.1093 18.6832C6.28848 18.8086 6.52234 18.8237 6.7159 18.7229C6.90969 18.622 7.03125 18.4216 7.03125 18.2032V16.4453H15.8984C16.222 16.4453 16.4844 16.183 16.4844 15.8594V12.3438C16.4844 12.0202 16.222 11.7578 15.8984 11.7578ZM15.3125 15.2735H6.44531C6.12172 15.2735 5.85938 15.5358 5.85938 15.8594V17.0778L1.6077 14.1016L5.85938 11.1254V12.3438C5.85938 12.6674 6.12172 12.9297 6.44531 12.9297H15.3125V15.2735Z" fill="#585858"/>
</g>
<defs>
<clipPath id="clip0_1834_4824">
<rect width="20" height="20" fill="white"/>
</clipPath>
</defs>
</svg>
