<svg width="45" height="45" viewBox="0 0 45 45" fill="none" xmlns="http://www.w3.org/2000/svg">
<path d="M18.2521 36.5624C13.8589 36.5624 10.2832 32.9867 10.2832 28.5935V9.375H7.00207C4.15764 9.375 1.8457 11.6866 1.8457 14.531V39.8435C1.8457 42.688 4.15764 44.9999 7.00207 44.9999H30.4393C33.2838 44.9999 35.5957 42.688 35.5957 39.8435V36.5624H18.2521Z" fill="white"/>
<path d="M43.0956 5.15636C43.0956 2.30816 40.7874 0 37.9396 0H18.2521C15.4039 0 13.0957 2.30816 13.0957 5.15636V28.5936C13.0957 31.4418 15.4039 33.75 18.2521 33.75H37.9396C40.7874 33.75 43.0956 31.4418 43.0956 28.5936V5.15636Z" fill="#87E8B6"/>
</svg>
