<svg width="437" height="437" viewBox="0 0 437 437" fill="none" xmlns="http://www.w3.org/2000/svg">
<g filter="url(#filter0_f_1739_3792)">
<path fill-rule="evenodd" clip-rule="evenodd" d="M202.19 15.5119C162.346 18.8688 125.119 33.4544 92.768 58.384C84.1543 65.0215 65.2368 83.9482 58.4135 92.7546C23.703 137.554 9.13653 192.357 17.1441 248.022C22.3076 283.918 36.6271 316.773 60.0016 346.358C65.8508 353.761 83.7337 371.628 91.058 377.385C115.935 396.943 143.491 410.211 173.609 417.134C201.159 423.466 234.519 423.628 261.926 417.563C292.272 410.848 321.445 396.937 346.042 377.454C353.855 371.265 371.613 353.528 377.574 345.96C400.812 316.456 415.538 281.854 420.612 244.836C422.463 231.345 422.463 205.777 420.612 192.286C408.849 106.475 346.104 38.1522 262.016 19.5918C244.777 15.7866 219.438 14.0587 202.19 15.5119ZM244.222 93.4872C305.547 106.714 347.768 160.939 344.972 222.881C344.694 229.045 343.772 237.546 342.924 241.772C336.016 276.196 314.561 307.186 285.113 325.278C250.128 346.771 206.354 350.103 169.223 334.098L162.171 331.059L130.854 338.49C113.63 342.577 98.5527 345.93 97.3476 345.941C95.2386 345.959 91.9715 343.578 91.9715 342.022C91.9715 341.607 95.0499 326.34 98.8123 308.094L105.653 274.92L102.876 268.836C91.5223 243.967 88.9824 213.549 95.9849 186.313C108.064 139.334 146.043 103.039 193.004 93.5955C204.216 91.3405 204.859 91.2943 221.396 91.573C232.988 91.7681 238.329 92.2164 244.222 93.4872ZM202.464 120.235C162.054 127.027 130.202 157.901 121.837 198.388C117.501 219.375 120.582 241.018 131.055 263.151L135.011 271.511L131.063 290.604C128.892 301.106 127.259 309.842 127.434 310.017C127.609 310.191 136.324 308.292 146.801 305.796L165.85 301.258L173.157 304.926C188.373 312.566 201.769 315.703 219.185 315.703C246.703 315.703 270.684 305.368 290.112 285.137C303.477 271.22 311.841 254.745 315.883 234.372C317.412 226.671 317.166 206.804 315.441 198.687C306.649 157.292 275.16 126.851 234.277 120.222C225.504 118.799 210.967 118.805 202.464 120.235ZM182.602 158.427C185.771 161.093 196.504 185.03 196.447 189.305C196.416 191.651 195.433 193.631 191.901 198.462C187.893 203.944 187.438 204.956 187.791 207.599C188.33 211.631 192.138 216.577 202.404 226.58C211.652 235.591 222.045 243.726 228.462 246.978C234.251 249.91 236.613 249.262 243.373 242.887C248.38 238.165 249.221 237.671 252.256 237.671C256.622 237.671 281.069 244.644 283.554 246.598C284.61 247.428 285.855 249.525 286.322 251.259C287.032 253.894 286.919 254.963 285.635 257.786C281.637 266.572 270.353 276.503 262.441 278.199C256.129 279.552 245.287 279.255 238.122 277.532C220.55 273.307 203.388 262.516 184.495 243.817C170.158 229.624 162.01 217.811 157.494 204.669C155.566 199.058 155.29 197.063 155.29 188.702C155.29 179.885 155.46 178.802 157.485 174.678C159.869 169.826 168.141 160.279 172.001 157.926C175.45 155.823 179.748 156.026 182.602 158.427Z" fill="url(#paint0_linear_1739_3792)" fill-opacity="0.3"/>
</g>
<defs>
<filter id="filter0_f_1739_3792" x="0" y="0" width="437" height="437" filterUnits="userSpaceOnUse" color-interpolation-filters="sRGB">
<feFlood flood-opacity="0" result="BackgroundImageFix"/>
<feBlend mode="normal" in="SourceGraphic" in2="BackgroundImageFix" result="shape"/>
<feGaussianBlur stdDeviation="7.5" result="effect1_foregroundBlur_1739_3792"/>
</filter>
<linearGradient id="paint0_linear_1739_3792" x1="218.5" y1="15" x2="218.5" y2="422" gradientUnits="userSpaceOnUse">
<stop stop-color="#3EB9FC"/>
<stop offset="1" stop-color="#5F90FC"/>
</linearGradient>
</defs>
</svg>
