<svg width="179" height="180" viewBox="0 0 179 180" fill="none" xmlns="http://www.w3.org/2000/svg">
<path d="M155.823 14.5062H139.765V6.12827C139.765 3.04379 137.265 0.542969 134.18 0.542969C131.095 0.542969 128.595 3.04379 128.595 6.12827V14.5062H50.4005V6.12827C50.4005 3.04379 47.9 0.542969 44.8152 0.542969C41.7304 0.542969 39.2299 3.04379 39.2299 6.12827V14.5062H23.1722C10.4681 14.5062 0.132812 24.8415 0.132812 37.5456V156.233C0.132812 168.937 10.4681 179.272 23.1722 179.272H155.823C168.527 179.272 178.862 168.937 178.862 156.233V37.5456C178.862 24.8415 168.527 14.5062 155.823 14.5062ZM23.1722 25.6768H39.2299V31.2621C39.2299 34.3466 41.7304 36.8474 44.8152 36.8474C47.9 36.8474 50.4005 34.3466 50.4005 31.2621V25.6768H128.595V31.2621C128.595 34.3466 131.095 36.8474 134.18 36.8474C137.265 36.8474 139.765 34.3466 139.765 31.2621V25.6768H155.823C162.368 25.6768 167.692 31.001 167.692 37.5456V50.8106H11.3034V37.5456C11.3034 31.001 16.6276 25.6768 23.1722 25.6768ZM155.823 168.102H23.1722C16.6276 168.102 11.3034 162.778 11.3034 156.233V61.9812H167.692V156.233C167.692 162.778 162.368 168.102 155.823 168.102Z" fill="white"/>
</svg>
