<svg width="40" height="40" viewBox="0 0 40 40" fill="none" xmlns="http://www.w3.org/2000/svg">
<path d="M20 37.5C29.665 37.5 37.5 29.665 37.5 20C37.5 10.335 29.665 2.5 20 2.5C10.335 2.5 2.5 10.335 2.5 20C2.5 29.665 10.335 37.5 20 37.5Z" fill="#ED5565"/>
<path fill-rule="evenodd" clip-rule="evenodd" d="M14.6955 26.4816L26.4805 14.6966C26.8055 14.3716 26.8055 13.8433 26.4805 13.5183C26.1555 13.1933 25.6272 13.1933 25.3022 13.5183L13.5172 25.3033C13.1922 25.6283 13.1922 26.1566 13.5172 26.4816C13.8422 26.8066 14.3705 26.8066 14.6955 26.4816Z" fill="#F3F3F3"/>
<path fill-rule="evenodd" clip-rule="evenodd" d="M26.4805 25.3033L14.6955 13.5183C14.3705 13.1933 13.8422 13.1933 13.5172 13.5183C13.1922 13.8433 13.1922 14.3716 13.5172 14.6966L25.3022 26.4816C25.6272 26.8066 26.1555 26.8066 26.4805 26.4816C26.8055 26.1566 26.8055 25.6283 26.4805 25.3033Z" fill="#F3F3F3"/>
</svg>
