<svg width="20" height="20" viewBox="0 0 20 20" fill="none" xmlns="http://www.w3.org/2000/svg">
<path d="M8.11203 16.2493C6.15952 16.2493 4.57031 14.6601 4.57031 12.7076V4.16602H3.11203C1.84784 4.16602 0.820312 5.19339 0.820312 6.45758V17.7076C0.820312 18.9718 1.84784 19.9993 3.11203 19.9993H13.5286C14.7928 19.9993 15.8203 18.9718 15.8203 17.7076V16.2493H8.11203Z" fill="#1976D2"/>
<path d="M19.1536 2.29172C19.1536 1.02585 18.1277 0 16.862 0H8.11203C6.84616 0 5.82031 1.02585 5.82031 2.29172V12.7083C5.82031 13.9742 6.84616 15 8.11203 15H16.862C18.1277 15 19.1536 13.9742 19.1536 12.7083V2.29172Z" fill="#2196F3"/>
</svg>
