<svg width="25" height="25" viewBox="0 0 25 25" fill="none" xmlns="http://www.w3.org/2000/svg">
<path d="M22.4984 12.4752L17.779 7.47517C17.4984 7.16904 17.0137 7.14353 16.7076 7.44966C16.4015 7.73027 16.376 8.21496 16.6821 8.52109L20.8913 13.0109L16.6566 17.4752C16.376 17.7813 16.376 18.266 16.6821 18.5466C16.8352 18.6741 17.0137 18.7507 17.2178 18.7507C17.4219 18.7507 17.626 18.6741 17.779 18.5211L22.4984 13.5211C22.779 13.2405 22.779 12.7813 22.4984 12.4752Z" fill="url(#paint0_linear_2003_4820)"/>
<path d="M8.31585 7.44956C8.00973 7.16895 7.52503 7.16895 7.24442 7.47507L2.49952 12.4751C2.21891 12.7812 2.21891 13.2404 2.49952 13.521L7.21891 18.521C7.37197 18.6741 7.57605 18.7506 7.78013 18.7506C7.95871 18.7506 8.16279 18.6741 8.31585 18.5465C8.62197 18.2659 8.64748 17.7812 8.34136 17.4751L4.10666 13.0108L8.34136 8.5465C8.62197 8.24038 8.62197 7.75568 8.31585 7.44956Z" fill="url(#paint1_linear_2003_4820)"/>
<path d="M13.751 4.89856C13.3429 4.84754 12.9347 5.12815 12.8837 5.53632L10.6388 20.2302C10.5878 20.6384 10.8684 21.0465 11.2766 21.0975C11.3276 21.0975 11.3531 21.0975 11.4041 21.0975C11.7868 21.0975 12.0929 20.8169 12.1694 20.4598L14.4143 5.76591C14.4398 5.35775 14.1592 4.97509 13.751 4.89856Z" fill="url(#paint2_linear_2003_4820)"/>
<defs>
<linearGradient id="paint0_linear_2003_4820" x1="19.5791" y1="2.89182" x2="19.5791" y2="20.9551" gradientUnits="userSpaceOnUse">
<stop stop-color="#00EFD1"/>
<stop offset="1" stop-color="#00ACEA"/>
</linearGradient>
<linearGradient id="paint1_linear_2003_4820" x1="5.42383" y1="2.89173" x2="5.42383" y2="20.955" gradientUnits="userSpaceOnUse">
<stop stop-color="#00EFD1"/>
<stop offset="1" stop-color="#00ACEA"/>
</linearGradient>
<linearGradient id="paint2_linear_2003_4820" x1="12.5244" y1="2.89175" x2="12.5244" y2="20.955" gradientUnits="userSpaceOnUse">
<stop stop-color="#00EFD1"/>
<stop offset="1" stop-color="#00ACEA"/>
</linearGradient>
</defs>
</svg>
