<svg width="45" height="45" viewBox="0 0 45 45" fill="none" xmlns="http://www.w3.org/2000/svg">
<g clip-path="url(#clip0_922_46494)">
<path d="M41.5297 3.4697C36.9035 -1.15657 29.3761 -1.15657 24.7498 3.4697L20.6406 7.57926L26.234 13.1723L30.3433 9.06309C31.8851 7.52089 34.3945 7.52089 35.9363 9.06309C37.4785 10.6053 37.4785 13.1143 35.9363 14.6565L33.6862 16.907L29.0249 17.8391L28.0928 22.5L20.6406 29.9522L26.2337 35.5462L33.6862 28.0934L38.3475 27.1613L39.2796 22.5L41.5297 20.2499C46.156 15.6236 46.156 8.09596 41.5297 3.4697Z" fill="white"/>
<path d="M33.6868 16.9065L22.5 5.71997H17.2266L22.5 16.9065L28.0934 22.4999L33.6868 16.9065Z" fill="#4DBE84"/>
<path d="M41.5304 24.7505L39.2802 22.5L33.6868 28.0934L35.937 30.3439C37.4792 31.8858 37.4792 34.3951 35.937 35.937C34.3951 37.4792 31.8857 37.4792 30.3439 35.937L22.5 28.0934H17.2266L22.5 39.2799L24.7505 41.5304C29.3767 46.1566 36.9041 46.1566 41.5304 41.5304C46.1566 36.9041 46.1566 29.3767 41.5304 24.7505Z" fill="#4DBE84"/>
<path d="M22.5 39.2799V28.0934L9.06309 14.6565C7.52123 13.1143 7.52123 10.6053 9.06309 9.06309C10.6053 7.52089 13.1143 7.52089 14.6565 9.06309L22.5 16.9066V5.72017L20.2499 3.4697C15.6236 -1.15656 8.0963 -1.15656 3.4697 3.4697C-1.15656 8.09595 -1.15656 15.6233 3.4697 20.2499L16.907 33.6868L18.4605 37.7263L22.5 39.2799Z" fill="#87E8B6"/>
<path d="M16.9066 33.6869L14.6561 35.937C13.1139 37.4792 10.605 37.4792 9.06275 35.937C7.52055 34.3948 7.52055 31.8858 9.06275 30.3436L22.4942 16.9125L16.9008 11.3191L3.4697 24.7505C-1.15657 29.3768 -1.15657 36.9041 3.4697 41.5304C8.09596 46.1567 15.6233 46.1567 20.2495 41.5304L22.4997 39.2799L16.9066 33.6869Z" fill="#F4F4F4"/>
</g>
<defs>
<clipPath id="clip0_922_46494">
<rect width="45" height="45" fill="white"/>
</clipPath>
</defs>
</svg>
