<svg width="27" height="27" viewBox="0 0 27 27" fill="none" xmlns="http://www.w3.org/2000/svg">
<path d="M21.4256 8.32617C21.8509 7.90092 22.0849 7.33617 22.0849 6.73542C22.0849 6.13467 21.8509 5.56992 21.4256 5.14467L19.6414 3.36042C19.2161 2.93517 18.6514 2.70117 18.0506 2.70117C17.4499 2.70117 16.8851 2.93517 16.461 3.3593L4.5 15.2832V20.25H9.46463L21.4256 8.32617ZM18.0506 4.95117L19.836 6.7343L18.0472 8.5163L16.263 6.73317L18.0506 4.95117ZM6.75 18V16.2169L14.67 8.32167L16.4543 10.1059L8.53537 18H6.75ZM4.5 22.5H22.5V24.75H4.5V22.5Z" fill="url(#paint0_linear_1716_4275)"/>
<defs>
<linearGradient id="paint0_linear_1716_4275" x1="13.5" y1="2.70117" x2="13.5" y2="24.75" gradientUnits="userSpaceOnUse">
<stop stop-color="#3EB9FC"/>
<stop offset="1" stop-color="#5F90FC"/>
</linearGradient>
</defs>
</svg>
