<svg width="109" height="47" viewBox="0 0 109 47" fill="none" xmlns="http://www.w3.org/2000/svg">
<g clip-path="url(#clip0_2066_4561)">
<path fill-rule="evenodd" clip-rule="evenodd" d="M25.8304 10.2193C26.5244 8.87556 28.1703 8.35143 29.508 9.05104C30.8462 9.75201 31.3656 11.4096 30.6678 12.7558L18.2284 36.9068C17.7601 37.8098 16.8627 38.3403 15.9208 38.3801C15.4577 38.4029 14.9845 38.3072 14.5453 38.0734C13.2073 37.3747 12.6885 35.7171 13.3842 34.3707L16.9018 27.5346L9.28335 12.7558C8.58757 11.4096 9.11009 9.75201 10.4465 9.05104C11.7826 8.35143 13.4317 8.87556 14.1245 10.2193L19.9771 21.5715L25.8304 10.2193ZM75.8968 8.37531C78.848 8.37531 81.6223 9.53141 83.7098 11.6321C84.7712 12.7048 84.7712 14.4428 83.7098 15.5158C82.6423 16.5853 80.9144 16.5853 79.8499 15.5158C78.7921 14.451 77.3924 13.868 75.8968 13.868C74.4053 13.868 73.0033 14.451 71.9485 15.5158C70.8926 16.5736 70.3124 17.9868 70.3124 19.4892C70.3124 20.9904 70.8926 22.4019 71.9485 23.4646C73.0033 24.5229 74.4053 25.1144 75.8968 25.1144C77.3924 25.1144 78.7921 24.5229 79.8499 23.4646C80.9144 22.3907 82.6423 22.3907 83.7098 23.4646C84.7712 24.5366 84.7712 26.2758 83.7098 27.3435C81.6223 29.4446 78.848 30.6025 75.8968 30.6025C72.9493 30.6025 70.1764 29.4446 68.0904 27.3435C66.0042 25.2492 64.8545 22.4563 64.8545 19.4892C64.8545 16.519 66.0042 13.7327 68.0904 11.6321C70.1764 9.53141 72.9493 8.37531 75.8968 8.37531ZM97.9558 8.37524C104.046 8.37524 109 13.3604 109 19.4892C109 25.6168 104.046 30.6026 97.9558 30.6026C91.8684 30.6026 86.9148 25.6168 86.9148 19.4892C86.9148 13.3604 91.8684 8.37524 97.9558 8.37524ZM3.01339 8.74213C4.52009 8.74213 5.74157 9.97135 5.74157 11.4834V27.5396C5.74157 29.0569 4.52009 30.283 3.01339 30.283C1.5067 30.283 0.284762 29.0569 0.284762 27.5396V11.4834C0.284762 9.97135 1.5067 8.74213 3.01339 8.74213ZM48.3659 8.74094C48.4005 8.74096 48.4339 8.74099 48.466 8.74101L48.851 8.74142C48.8699 8.74145 48.8873 8.74148 48.9033 8.74152L49.0222 8.74196L49.0283 8.74209C49.6802 8.7197 50.3385 8.92898 50.876 9.38457C52.0287 10.354 52.1795 12.0884 51.213 13.2484L41.5824 24.793H49.1189C50.6267 24.793 51.85 26.0254 51.85 27.5396C51.85 29.0571 50.6267 30.2829 49.1189 30.2829H35.7328C35.1137 30.2829 34.4897 30.0757 33.9788 29.6407C32.8261 28.6685 32.674 26.9387 33.6434 25.7746L43.2724 14.2338H36.9774C35.4689 14.2338 34.2492 13.0014 34.2492 11.4836C34.2492 9.97131 35.4689 8.74209 36.9774 8.74209L37.2086 8.74202C37.2299 8.74201 37.2527 8.74201 37.2768 8.742L39.142 8.7415C39.1979 8.74149 39.2545 8.74147 39.3118 8.74146L41.4153 8.74099C41.4838 8.74098 41.5527 8.74096 41.6218 8.74095L48.3659 8.74094ZM58.5516 8.74213C60.0612 8.74213 61.2798 9.97135 61.2798 11.4834V27.5396C61.2798 29.0569 60.0612 30.283 58.5516 30.283C57.0463 30.283 55.8266 29.0569 55.8266 27.5396V11.4834C55.8266 9.97135 57.0463 8.74213 58.5516 8.74213ZM97.9558 13.8679C94.8763 13.8679 92.3728 16.3889 92.3728 19.4892C92.3728 22.5885 94.8763 25.1143 97.9558 25.1143C101.037 25.1143 103.545 22.5885 103.545 19.4892C103.545 16.3889 101.037 13.8679 97.9558 13.8679ZM3.01339 0C4.677 0 6.02792 1.35854 6.02792 3.03444C6.02792 4.70691 4.677 6.06796 3.01339 6.06796C1.34978 6.06796 0 4.70691 0 3.03444C0 1.35854 1.34978 0 3.01339 0ZM58.5516 0C60.2184 0 61.5679 1.35854 61.5679 3.03444C61.5679 4.70691 60.2184 6.06796 58.5516 6.06796C56.8862 6.06796 55.5366 4.70691 55.5366 3.03444C55.5366 1.35854 56.8862 0 58.5516 0Z" fill="#1E64FF"/>
<path d="M54.246 40.0853C54.5735 40.0853 54.821 40.3402 54.821 40.6373C54.821 40.7533 54.7797 40.8497 54.7456 40.9256L52.3149 46.4254C52.1855 46.727 51.9597 46.8572 51.7222 46.8572C51.4061 46.8572 51.1817 46.6018 51.1817 46.3052C51.1817 46.1864 51.2194 46.0941 51.2444 46.0201L51.779 44.7941L50.0354 40.9256C50.0077 40.8497 49.9696 40.7533 49.9696 40.6373C49.9696 40.3402 50.2126 40.0853 50.5332 40.0853C50.7671 40.0853 50.9901 40.216 51.1245 40.5189L52.3789 43.4415L53.666 40.5189C53.7937 40.216 54.0117 40.0853 54.246 40.0853ZM105.212 40.0853C105.416 40.0853 105.575 40.2548 105.575 40.4444C105.575 40.5189 105.557 40.5664 105.539 40.6208L102.968 46.5949C102.893 46.7731 102.752 46.8572 102.602 46.8572C102.395 46.8572 102.253 46.6877 102.253 46.5012C102.253 46.4254 102.272 46.3792 102.294 46.3216L102.923 44.8485L101.083 40.6208C101.063 40.5664 101.044 40.5189 101.044 40.4444C101.044 40.2548 101.206 40.0853 101.41 40.0853C101.56 40.0853 101.704 40.168 101.777 40.3489L103.307 43.9538L104.841 40.3489C104.918 40.168 105.059 40.0853 105.212 40.0853ZM87.2582 40.0557C88.3 40.0557 89.5671 40.8878 89.5671 42.5652C89.5671 44.2605 88.3 45.0875 87.2582 45.0875C86.4334 45.0875 85.7976 44.5899 85.5977 44.0279V46.4634C85.5977 46.6777 85.4133 46.8573 85.2067 46.8573C84.9919 46.8573 84.8152 46.6777 84.8152 46.4634V40.4806C84.8152 40.2622 84.9805 40.0854 85.2067 40.0854C85.4133 40.0854 85.5896 40.2622 85.5896 40.4806V41.0491C85.8811 40.4153 86.5442 40.0557 87.2582 40.0557ZM60.5671 38.3838C60.9114 38.3838 61.1766 38.6648 61.1766 39.0025V42.6521C61.1766 44.1783 60.0135 45.0876 58.5592 45.0876C57.0986 45.0876 55.9437 44.1783 55.9437 42.6521V39.0025C55.9437 38.6648 56.2144 38.3838 56.5613 38.3838C56.9102 38.3838 57.2081 38.6648 57.2081 39.0025V42.6325C57.2081 43.6227 57.8403 44.0147 58.5592 44.0147C59.2932 44.0147 59.909 43.6227 59.909 42.6325V39.0025C59.909 38.6648 60.2083 38.3838 60.5671 38.3838ZM46.4853 40.0559C47.1533 40.0559 47.687 40.415 47.8727 40.8597V40.6947C47.8727 40.3671 48.1575 40.0851 48.4927 40.0851C48.8215 40.0851 49.1199 40.3671 49.1199 40.6947V44.4617C49.1199 44.8026 48.8215 45.0745 48.4927 45.0745C48.1575 45.0745 47.8727 44.8026 47.8727 44.4617V44.2812C47.8014 44.5737 47.3023 45.0878 46.4853 45.0878C45.4552 45.0878 44.2171 44.2812 44.2171 42.565C44.2171 40.888 45.4616 40.0559 46.4853 40.0559ZM72.3381 40.0557C73.4286 40.0557 74.7847 40.896 74.7847 42.5752C74.7847 44.2605 73.4286 45.0875 72.3381 45.0875C71.2604 45.0875 69.8979 44.2605 69.8979 42.5752C69.8979 40.896 71.2604 40.0557 72.3381 40.0557ZM92.5494 40.0557C93.2597 40.0557 93.9269 40.4153 94.2171 41.0491V40.4806C94.2171 40.2622 94.3983 40.0854 94.6018 40.0854C94.8275 40.0854 94.9929 40.2622 94.9929 40.4806V44.679C94.9929 44.8851 94.8194 45.0743 94.6018 45.0743C94.3983 45.0743 94.2171 44.8851 94.2171 44.679V44.0005C94.03 44.5739 93.3833 45.0875 92.5494 45.0875C91.5098 45.0875 90.2441 44.2605 90.2441 42.5652C90.2441 40.8878 91.5098 40.0557 92.5494 40.0557ZM31.8775 40.0557C32.5883 40.0557 33.2532 40.4153 33.5447 41.0491V40.4806C33.5447 40.2622 33.7232 40.0854 33.9294 40.0854C34.1551 40.0854 34.3227 40.2622 34.3227 40.4806V44.679C34.3227 44.8851 34.142 45.0743 33.9294 45.0743C33.7232 45.0743 33.5447 44.8851 33.5447 44.679V44.0005C33.3567 44.5739 32.7095 45.0875 31.8775 45.0875C30.8329 45.0875 29.5703 44.2605 29.5703 42.5652C29.5703 40.8878 30.8329 40.0557 31.8775 40.0557ZM41.3449 38.4148C42.8055 38.4148 43.7433 39.3675 43.7433 40.5565C43.7433 41.7665 42.8055 42.6771 41.3449 42.6771H40.1999V44.4446C40.1999 44.7942 39.9197 45.0875 39.5709 45.0875C39.2157 45.0875 38.9337 44.7942 38.9337 44.4446V39.1116C38.9337 38.7063 39.2239 38.4148 39.6286 38.4148H41.3449ZM67.4053 40.0557C68.0834 40.0557 68.6715 40.2993 69.0844 40.8033C69.1593 40.896 69.2628 41.0002 69.2628 41.1496C69.2628 41.3397 69.1121 41.4731 68.9336 41.4731C68.7946 41.4731 68.6815 41.3872 68.6048 41.2913C68.3241 40.9161 67.8577 40.7461 67.4435 40.7461C66.6096 40.7461 65.7385 41.3489 65.7385 42.5648C65.7385 43.7743 66.6096 44.3775 67.4435 44.3775C67.8577 44.3775 68.3241 44.2075 68.6048 43.8319C68.6815 43.7327 68.7946 43.6505 68.9336 43.6505C69.1121 43.6505 69.2628 43.7844 69.2628 43.974C69.2628 44.1239 69.1593 44.2239 69.0844 44.3131C68.6715 44.8111 68.0834 45.0679 67.4053 45.0679C66.2985 45.0679 64.966 44.2441 64.966 42.5648C64.966 40.8796 66.2985 40.0557 67.4053 40.0557ZM81.8313 40.0623C82.7201 40.0623 83.6575 40.6011 83.6575 42.1675V44.6724C83.6575 44.8749 83.4881 45.0677 83.276 45.0677C83.058 45.0677 82.88 44.8749 82.88 44.6724V42.1675C82.88 41.1412 82.2719 40.7532 81.6151 40.7532C80.6573 40.7532 80.1709 41.5652 80.0837 42.104V44.6724C80.0837 44.8749 79.9075 45.0677 79.6908 45.0677C79.4737 45.0677 79.3057 44.8749 79.3057 44.6724V42.1675C79.3057 41.1412 78.6871 40.7532 78.0304 40.7532C77.0757 40.7532 76.588 41.5652 76.5044 42.104V44.6724C76.5044 44.8749 76.3273 45.0677 76.1179 45.0677C75.9031 45.0677 75.725 44.8749 75.725 44.6724V40.4804C75.725 40.262 75.9031 40.0852 76.1179 40.0852C76.3273 40.0852 76.5044 40.262 76.5044 40.4804V41.2454C76.5598 40.9255 77.1416 40.0623 78.2566 40.0623C78.9492 40.0623 79.6795 40.3954 79.9647 41.2911C80.2249 40.718 80.8471 40.0623 81.8313 40.0623ZM98.6532 40.0623C99.5356 40.0623 100.482 40.6011 100.482 42.1675V44.6724C100.482 44.8749 100.304 45.0677 100.091 45.0677C99.8731 45.0677 99.706 44.8749 99.706 44.6724V42.1675C99.706 41.1412 99.0833 40.7532 98.4288 40.7532C97.4737 40.7532 96.9841 41.5652 96.8992 42.104V44.6724C96.8992 44.8749 96.7221 45.0677 96.5159 45.0677C96.3011 45.0677 96.1212 44.8749 96.1212 44.6724V40.4804C96.1212 40.262 96.3011 40.0852 96.5159 40.0852C96.7221 40.0852 96.8992 40.262 96.8992 40.4804V41.2454C96.9528 40.9255 97.5364 40.0623 98.6532 40.0623ZM87.1473 40.7328C86.4152 40.7328 85.5537 41.2748 85.5537 42.5652C85.5537 43.8318 86.4152 44.3957 87.1473 44.3957C87.9085 44.3957 88.7864 43.8127 88.7864 42.5652C88.7864 41.3324 87.9085 40.7328 87.1473 40.7328ZM72.3381 40.7461C71.5602 40.7461 70.6709 41.3589 70.6709 42.5752C70.6709 43.7843 71.5602 44.3957 72.3381 44.3957C73.1257 44.3957 74.0086 43.7843 74.0086 42.5752C74.0086 41.3589 73.1257 40.7461 72.3381 40.7461ZM31.9874 40.7328C31.2307 40.7328 30.3447 41.3324 30.3447 42.5652C30.3447 43.8127 31.2307 44.3957 31.9874 44.3957C32.7191 44.3957 33.5824 43.8318 33.5824 42.5652C33.5824 41.2748 32.7191 40.7328 31.9874 40.7328ZM92.6639 40.7328C91.9009 40.7328 91.0203 41.3324 91.0203 42.5652C91.0203 43.8127 91.9009 44.3957 92.6639 44.3957C93.3915 44.3957 94.2562 43.8318 94.2562 42.5652C94.2562 41.2748 93.3915 40.7328 92.6639 40.7328ZM46.7114 41.1133C46.0924 41.1133 45.4466 41.6026 45.4466 42.565C45.4466 43.5373 46.0924 44.0149 46.7114 44.0149C47.2364 44.0149 47.9313 43.6296 47.9313 42.565C47.9313 41.4994 47.2364 41.1133 46.7114 41.1133ZM41.2872 39.4986H40.1999V41.5965H41.2872C41.9934 41.5965 42.5157 41.3397 42.5157 40.5565C42.5157 39.7819 41.9934 39.4986 41.2872 39.4986Z" fill="#212529"/>
</g>
<defs>
<clipPath id="clip0_2066_4561">
<rect width="109" height="47" fill="white"/>
</clipPath>
</defs>
</svg>
