<svg width="36" height="36" viewBox="0 0 36 36" fill="none" xmlns="http://www.w3.org/2000/svg">
<path d="M26.5417 17.9996C26.5375 16.655 26.3934 15.3144 26.1117 13.9996H29.7117C29.5263 13.4512 29.3024 12.9165 29.0417 12.3996H25.6917C25.062 10.2957 24.0852 8.3117 22.8017 6.52961C21.9817 6.18481 21.1267 5.92999 20.2517 5.76961C22.0101 7.65885 23.3373 9.90729 24.1417 12.3596H18.7517V5.59961H17.2517V12.3696H11.8617C12.6678 9.91285 13.9985 7.66081 15.7617 5.76961C14.8905 5.92731 14.0389 6.17877 13.2217 6.51961C11.9332 8.29423 10.9497 10.2714 10.3117 12.3696H6.94172C6.67629 12.8959 6.44903 13.4407 6.26172 13.9996H9.89172C9.61001 15.3144 9.4659 16.655 9.46172 17.9996C9.46448 19.4704 9.6322 20.9362 9.96172 22.3696H6.42172C6.6286 22.9301 6.87592 23.4749 7.16172 23.9996H10.3917C11.0039 25.9154 11.9115 27.7239 13.0817 29.3596C13.9197 29.719 14.7951 29.984 15.6917 30.1496C14.0596 28.3694 12.8045 26.2774 12.0017 23.9996H17.2617V30.3396H18.7617V23.9996H24.0017C23.1962 26.2784 21.9376 28.3704 20.3017 30.1496C21.2026 29.9783 22.0814 29.7066 22.9217 29.3396C24.0901 27.71 24.9976 25.9084 25.6117 23.9996H28.8117C29.0962 23.4846 29.3435 22.9499 29.5517 22.3996H26.0017C26.3469 20.958 26.5281 19.4819 26.5417 17.9996ZM17.2517 22.3696H11.5117C10.8077 19.6175 10.7768 16.7362 11.4217 13.9696H17.2517V22.3696ZM24.4917 22.3696H18.7517V13.9996H24.5817C24.869 15.3133 25.0098 16.6549 25.0017 17.9996C25.0098 19.4716 24.8386 20.9391 24.4917 22.3696Z" fill="#4689F1"/>
<path d="M18 2C14.8355 2 11.7421 2.93838 9.11088 4.69649C6.4797 6.45459 4.42894 8.95345 3.21793 11.8771C2.00693 14.8007 1.69008 18.0177 2.30744 21.1214C2.92481 24.2251 4.44866 27.0761 6.6863 29.3137C8.92394 31.5513 11.7749 33.0752 14.8786 33.6926C17.9823 34.3099 21.1993 33.9931 24.1229 32.7821C27.0466 31.5711 29.5454 29.5203 31.3035 26.8891C33.0616 24.2579 34 21.1645 34 18C34 13.7565 32.3143 9.68687 29.3137 6.68629C26.3131 3.68571 22.2435 2 18 2ZM18 32C15.2311 32 12.5243 31.1789 10.222 29.6406C7.91974 28.1022 6.12532 25.9157 5.06569 23.3576C4.00607 20.7994 3.72882 17.9845 4.26901 15.2687C4.80921 12.553 6.14258 10.0584 8.10051 8.1005C10.0584 6.14257 12.553 4.8092 15.2687 4.26901C17.9845 3.72881 20.7994 4.00606 23.3576 5.06569C25.9157 6.12531 28.1022 7.91973 29.6406 10.222C31.1789 12.5243 32 15.2311 32 18C32 21.713 30.525 25.274 27.8995 27.8995C25.274 30.525 21.713 32 18 32Z" fill="#4689F1"/>
</svg>
