<svg width="20" height="20" viewBox="0 0 20 20" fill="none" xmlns="http://www.w3.org/2000/svg">
<g clip-path="url(#clip0_1834_4830)">
<path d="M18.5413 1.45875C17.6005 0.518086 16.3498 0 15.0195 0C13.6892 0 12.4385 0.518086 11.4978 1.45875L8.13555 4.82098C7.5373 5.41922 7.12367 6.13313 6.89402 6.89129C6.11469 7.12781 5.40078 7.55578 4.82098 8.13559L1.45871 11.4978C0.518047 12.4385 0 13.6892 0 15.0195C0 16.3499 0.518047 17.6005 1.45875 18.5413C2.39941 19.4819 3.65012 20 4.98047 20C6.31082 20 7.56152 19.4819 8.50219 18.5413L11.8645 15.179C12.4627 14.5808 12.8763 13.8669 13.1059 13.1088C13.8853 12.8722 14.5992 12.4443 15.179 11.8645L18.5413 8.50219C19.4819 7.56148 20 6.31082 20 4.98047C20 3.65016 19.4819 2.39945 18.5413 1.45875ZM7.0002 10.1075C7.24203 10.7486 7.62047 11.3494 8.13555 11.8645C8.63504 12.364 9.23633 12.7514 9.89199 13.0002C9.8602 13.0368 9.82746 13.0728 9.79285 13.1074L6.43059 16.4697C6.04324 16.857 5.52824 17.0703 4.98047 17.0703C4.4327 17.0703 3.9177 16.857 3.53035 16.4696C2.73074 15.67 2.73074 14.369 3.53035 13.5694L6.89258 10.2072C6.92723 10.1725 6.96332 10.1395 7.0002 10.1075ZM11.4501 14.7647L8.08785 18.1269C7.25785 18.957 6.1543 19.4141 4.98047 19.4141C3.80664 19.4141 2.70309 18.957 1.87309 18.1269C1.04305 17.2969 0.585938 16.1934 0.585938 15.0195C0.585938 13.8457 1.04305 12.7421 1.87305 11.9121L5.23531 8.54992C5.66539 8.11981 6.1791 7.78496 6.74008 7.56508C6.63898 8.2098 6.6643 8.87066 6.81633 9.50727C6.69633 9.59266 6.58309 9.68805 6.47828 9.79285L3.11605 13.1551C2.61801 13.6531 2.34375 14.3152 2.34375 15.0195C2.34375 15.7238 2.61801 16.3859 3.11605 16.884C3.61402 17.382 4.27617 17.6562 4.98047 17.6562C5.68477 17.6562 6.34688 17.382 6.84488 16.884L10.2071 13.5217C10.7052 13.0237 10.9794 12.3616 10.9794 11.6573C10.9794 10.953 10.7052 10.2909 10.2071 9.79285C9.4075 8.99324 9.4075 7.69227 10.2071 6.89266L13.5693 3.53043C13.9568 3.14305 14.4718 2.92969 15.0195 2.92969C15.5673 2.92969 16.0823 3.14305 16.4696 3.53039C16.857 3.9177 17.0703 4.4327 17.0703 4.98047C17.0703 5.52824 16.857 6.04324 16.4696 6.43059L13.1074 9.79285C13.0727 9.8275 13.0367 9.86047 12.9998 9.8925C12.758 9.25148 12.3796 8.65066 11.8645 8.13559C11.5688 7.83996 11.2382 7.58281 10.8817 7.37129C10.7426 7.28883 10.5628 7.33465 10.4802 7.47375C10.3977 7.61293 10.4436 7.79262 10.5827 7.8752C10.8972 8.0618 11.189 8.28883 11.4501 8.54992C13.1635 10.2633 13.1635 13.0513 11.4501 14.7647ZM18.1269 8.08785L14.7647 11.4501C14.3346 11.8802 13.8209 12.215 13.2599 12.435C13.361 11.7902 13.3357 11.1294 13.1837 10.4928C13.3037 10.4074 13.417 10.312 13.5217 10.2072L16.8839 6.84496C17.382 6.34688 17.6562 5.68477 17.6562 4.98047C17.6562 4.27617 17.382 3.61406 16.8839 3.11605C16.3859 2.61801 15.7238 2.34375 15.0195 2.34375C14.3152 2.34375 13.6531 2.61801 13.1551 3.11605L9.79285 6.47828C9.29484 6.97633 9.02055 7.63844 9.02055 8.34273C9.02055 9.04699 9.2948 9.7091 9.79285 10.2071C10.1802 10.5945 10.3935 11.1095 10.3935 11.6573C10.3935 11.9507 10.3318 12.2345 10.2154 12.4945C9.59207 12.278 9.02004 11.9203 8.54988 11.4501C6.83648 9.73668 6.83648 6.94871 8.54988 5.23527L11.9122 1.87305C12.7421 1.04305 13.8457 0.585938 15.0195 0.585938C16.1934 0.585938 17.2969 1.04305 18.1269 1.87309C18.957 2.70309 19.4141 3.80664 19.4141 4.98047C19.4141 6.1543 18.957 7.25785 18.1269 8.08785Z" fill="#585858"/>
</g>
<defs>
<clipPath id="clip0_1834_4830">
<rect width="20" height="20" fill="white"/>
</clipPath>
</defs>
</svg>
