<svg width="26" height="26" viewBox="0 0 26 26" fill="none" xmlns="http://www.w3.org/2000/svg">
<path d="M25.7017 12.9729L23.1337 11.1625C22.6684 10.8345 22.0254 11.1685 22.0254 11.7372V12.8445H9.69536C9.30705 12.8445 8.99219 13.1593 8.99219 13.5477C8.99219 13.936 9.30705 14.2508 9.69536 14.2508H22.0253V15.358C22.0253 15.9304 22.6718 16.2582 23.1336 15.9327L25.7015 14.1223C26.0937 13.846 26.1016 13.2555 25.7017 12.9729Z" fill="#585858"/>
<path d="M22.1783 18.0627C21.8423 17.8683 21.4121 17.9831 21.2176 18.3193C19.5659 21.1747 16.4784 23.0916 12.9501 23.0916C7.68767 23.0916 3.4063 18.8103 3.4063 13.5478C3.4063 8.28533 7.68767 4.00395 12.9501 4.00395C16.4807 4.00395 19.5668 5.92269 21.2175 8.77625C21.412 9.11244 21.8423 9.22714 22.1783 9.03284C22.5144 8.83841 22.6293 8.40824 22.4349 8.07209C20.5352 4.78813 16.9873 2.59766 12.9501 2.59766C6.89797 2.59766 2 7.49511 2 13.5478C2 19.6 6.89745 24.4979 12.9501 24.4979C16.989 24.4979 20.5361 22.3059 22.4349 19.0234C22.6293 18.6873 22.5145 18.2571 22.1783 18.0627Z" fill="#585858"/>
</svg>
