<svg width="100" height="100" viewBox="0 0 100 100" fill="none" xmlns="http://www.w3.org/2000/svg">
<circle cx="50" cy="50" r="50" fill="url(#paint0_linear_1905_4659)"/>
<path d="M29.6055 72.2031H43.1992C43.1992 75.9509 46.2483 79 49.9961 79C53.7439 79 56.793 75.9509 56.793 72.2031H70.3867C71.3251 72.2031 72.0859 71.4423 72.0859 70.5039C72.0859 63.9667 70.0863 61.4338 68.3219 59.199C66.6945 57.1376 65.2891 55.3573 65.2891 50V43.0898C65.2891 36.2255 60.743 30.4034 54.5034 28.4751C54.8796 27.7647 55.0938 26.9559 55.0938 26.0977C55.0938 23.2868 52.8069 21 49.9961 21C47.1852 21 44.8984 23.2868 44.8984 26.0977C44.8984 26.9559 45.1125 27.7647 45.4887 28.4751C39.2492 30.4034 34.7031 36.2255 34.7031 43.0898V50C34.7031 55.3573 33.2976 57.1376 31.6702 59.199C29.9059 61.4338 27.9062 63.9667 27.9062 70.5039C27.9062 71.4423 28.667 72.2031 29.6055 72.2031ZM49.9961 75.6016C48.1222 75.6016 46.5977 74.077 46.5977 72.202H53.3945C53.3945 74.077 51.87 75.6016 49.9961 75.6016ZM48.2969 26.0977C48.2969 25.1607 49.0591 24.3984 49.9961 24.3984C50.933 24.3984 51.6953 25.1607 51.6953 26.0977C51.6953 27.0346 50.933 27.7969 49.9961 27.7969C49.0591 27.7969 48.2969 27.0346 48.2969 26.0977ZM34.3376 61.3049C36.1019 59.0701 38.1016 56.5372 38.1016 50V43.0898C38.1016 36.5312 43.4374 31.1953 49.9961 31.1953C56.5547 31.1953 61.8906 36.5312 61.8906 43.0898V50C61.8906 56.5372 63.8903 59.0701 65.6546 61.3049C67.0965 63.1311 68.364 64.737 68.6345 68.8047H31.3578C31.6282 64.737 32.8958 63.1311 34.3376 61.3049Z" fill="white"/>
<path d="M31.3047 43.0902C31.3047 36.45 34.8868 30.2485 40.6529 26.9058C41.4649 26.4351 41.7414 25.3954 41.2708 24.5836C40.8003 23.7717 39.7602 23.4952 38.9486 23.9657C32.1776 27.8908 27.9062 35.1328 27.9062 43.0902C27.9062 44.0286 28.667 44.7894 29.6055 44.7894C30.5439 44.7894 31.3047 44.0286 31.3047 43.0902Z" fill="white"/>
<path d="M61.0438 23.9658C60.232 23.4951 59.1923 23.7717 58.7216 24.5836C58.251 25.3955 58.5275 26.4352 59.3395 26.9059C65.1058 30.2486 68.6878 36.45 68.6878 43.0903C68.6878 44.0287 69.4486 44.7895 70.3871 44.7895C71.3255 44.7895 72.0863 44.0287 72.0863 43.0903C72.0863 35.1384 67.8195 27.8936 61.0438 23.9658Z" fill="white"/>
<defs>
<linearGradient id="paint0_linear_1905_4659" x1="50" y1="0" x2="50" y2="100" gradientUnits="userSpaceOnUse">
<stop stop-color="#3EB9FC"/>
<stop offset="1" stop-color="#5F90FC"/>
</linearGradient>
</defs>
</svg>
