<svg width="25" height="25" viewBox="0 0 25 25" fill="none" xmlns="http://www.w3.org/2000/svg">
<g clip-path="url(#clip0_929_2536)">
<path d="M24.9584 14.1663L23.0607 3.40382C22.8028 1.94155 21.4031 0.961597 19.9411 1.21947L3.66492 4.08947C2.20261 4.34729 1.2227 5.7467 1.48053 7.20896L1.61997 7.99988C0.667632 8.41531 0 9.3655 0 10.4692V21.1289C0 22.6137 1.20801 23.8217 2.69285 23.8217H18.85C20.3348 23.8217 21.5428 22.6137 21.5428 21.1289V17.5029L22.774 17.2858C23.4824 17.1609 24.0997 16.7677 24.5123 16.1784C24.9248 15.5892 25.0833 14.8746 24.9584 14.1663V14.1663ZM23.3091 15.3359C23.1216 15.6038 22.8409 15.7825 22.519 15.8393L21.5428 16.0114V15.1743V11.8425V10.4691C21.5428 8.98429 20.3348 7.77627 18.85 7.77627H3.0721L2.92708 6.95388C2.87029 6.63191 2.94236 6.3071 3.12988 6.03924C3.3174 5.77142 3.59804 5.59267 3.92001 5.53587L20.1962 2.66593C20.2678 2.65329 20.339 2.64722 20.4094 2.64722C20.9918 2.64722 21.5097 3.06574 21.6142 3.65881L23.5119 14.4213C23.5686 14.7433 23.4966 15.0681 23.3091 15.3359V15.3359ZM18.85 22.3529H2.69285C2.01793 22.3529 1.46883 21.8038 1.46883 21.1289V15.9087H20.074V21.1288C20.074 21.8038 19.5249 22.3529 18.85 22.3529ZM2.69285 9.24515H18.85C19.5249 9.24515 20.074 9.79425 20.074 10.4692V11.1081H1.46883V10.4692C1.46883 9.79425 2.01793 9.24515 2.69285 9.24515ZM20.074 12.5769V14.4399H1.46883V12.5769H20.074Z" fill="#3C6DB2"/>
<path d="M7.06621 19.4035H3.73441C3.32882 19.4035 3 19.7323 3 20.1379C3 20.5435 3.32882 20.8723 3.73441 20.8723H7.06621C7.4718 20.8723 7.80062 20.5435 7.80062 20.1379C7.80062 19.7323 7.4718 19.4035 7.06621 19.4035Z" fill="#3C6DB2"/>
</g>
<defs>
<clipPath id="clip0_929_2536">
<rect width="25" height="25" fill="#3C6DB2"/>
</clipPath>
</defs>
</svg>
