<svg width="71" height="71" viewBox="0 0 71 71" fill="none" xmlns="http://www.w3.org/2000/svg">
<circle cx="35.5" cy="35.5" r="35.5" fill="url(#paint0_linear_1905_4658)"/>
<path d="M40.2184 32.8785C40.646 32.8785 41.0305 32.4932 41.0305 32.066C41.0305 31.6388 40.646 31.2539 40.2184 31.2539C39.7908 31.2539 39.4062 31.6388 39.4062 32.066C39.4062 32.4932 39.7908 32.8785 40.2184 32.8785Z" fill="white"/>
<path d="M43.5152 32.8785C43.9428 32.8785 44.3281 32.4932 44.3281 32.066C44.3281 31.6388 43.9428 31.2539 43.5152 31.2539C43.0877 31.2539 42.7031 31.6388 42.7031 32.066C42.7031 32.4932 43.0877 32.8785 43.5152 32.8785Z" fill="white"/>
<path d="M46.8121 32.8785C47.2397 32.8785 47.625 32.4932 47.625 32.066C47.625 31.6388 47.2397 31.2539 46.8121 31.2539C46.3845 31.2539 46 31.6388 46 32.066C46 32.4932 46.3845 32.8785 46.8121 32.8785Z" fill="white"/>
<path d="M50.1097 32.8785C50.5373 32.8785 50.9219 32.4932 50.9219 32.066C50.9219 31.6388 50.5373 31.2539 50.1097 31.2539C49.6822 31.2539 49.2969 31.6388 49.2969 32.066C49.2969 32.4932 49.6822 32.8785 50.1097 32.8785Z" fill="white"/>
<path d="M20.8902 38.5582C21.3178 38.5582 21.7024 38.1733 21.7024 37.7461C21.7024 37.3189 21.3178 36.9336 20.8902 36.9336C20.4627 36.9336 20.0781 37.3189 20.0781 37.7461C20.0781 38.1733 20.4627 38.5582 20.8902 38.5582Z" fill="white"/>
<path d="M24.1871 38.5582C24.6147 38.5582 25 38.1733 25 37.7461C25 37.3189 24.6147 36.9336 24.1871 36.9336C23.7595 36.9336 23.375 37.3189 23.375 37.7461C23.375 38.1733 23.7595 38.5582 24.1871 38.5582Z" fill="white"/>
<path d="M27.484 38.5582C27.9116 38.5582 28.2969 38.1733 28.2969 37.7461C28.2969 37.3189 27.9116 36.9336 27.484 36.9336C27.0564 36.9336 26.6719 37.3189 26.6719 37.7461C26.6719 38.1733 27.0564 38.5582 27.484 38.5582Z" fill="white"/>
<path d="M30.7816 38.5582C31.2092 38.5582 31.5937 38.1733 31.5937 37.7461C31.5937 37.3189 31.2092 36.9336 30.7816 36.9336C30.354 36.9336 29.9688 37.3189 29.9688 37.7461C29.9688 38.1733 30.354 38.5582 30.7816 38.5582Z" fill="white"/>
<path d="M18.74 43.8697H22.7319C22.7319 44.6516 22.7319 51.2988 22.7319 50.8784C22.7319 52.636 24.1582 54.0657 25.9116 54.0657H42.9531C44.7065 54.0657 46.1328 52.636 46.1328 50.8784V39.4851L47.1882 38.4825H52.2618C53.2326 38.4825 54.022 37.6931 54.022 36.7231V27.3369C54.022 26.3669 53.2326 25.5775 52.2618 25.5775H46.1328V20.1129C46.1328 18.3599 44.7065 16.9336 42.9531 16.9336H25.9116C24.1582 16.9336 22.7319 18.3599 22.7319 20.1129V30.9665H18.74C17.7723 30.9665 16.9844 31.7545 16.9844 32.7226V42.1136C16.9844 43.0817 17.7723 43.8697 18.74 43.8697ZM42.9531 52.5185H25.9116C25.0111 52.5185 24.279 51.7827 24.279 50.8784V49.6296H44.5856V50.8784C44.5856 51.7827 43.8536 52.5185 42.9531 52.5185ZM52.4748 27.3369V36.7231C52.4748 36.8383 52.3774 36.9354 52.2618 36.9354H46.8792C46.6805 36.9354 46.4901 37.0117 46.3466 37.148L43.7886 39.5783L43.7629 37.6984C43.7569 37.2753 43.4124 36.9354 42.9894 36.9354H38.0699C37.955 36.9354 37.8576 36.8383 37.8576 36.7231V27.3369C37.8576 27.2217 37.955 27.1247 38.0699 27.1247H52.2618C52.3774 27.1247 52.4748 27.2217 52.4748 27.3369ZM25.9116 18.4808H42.9531C43.8536 18.4808 44.5856 19.2128 44.5856 20.1129V21.5947H24.279V20.1129C24.279 19.2128 25.0111 18.4808 25.9116 18.4808ZM24.279 23.1419H44.5856V25.5775H38.0699C37.0998 25.5775 36.3104 26.3669 36.3104 27.3369V36.7231C36.3104 37.6931 37.0998 38.4825 38.0699 38.4825H42.2264L42.2551 40.6167C42.2573 40.7753 42.3079 40.9298 42.4009 41.0586C42.6388 41.388 43.0226 41.5848 43.429 41.5848C43.8053 41.5848 44.1626 41.416 44.4021 41.1293L44.5856 40.9549V48.0825H24.279V44.3111L26.6013 46.5213C27.1202 47.1389 28.0984 47.1312 28.598 46.4579C28.6954 46.3275 28.7483 46.1697 28.7506 46.0072L28.7785 43.8697H32.9358C33.9035 43.8697 34.6915 43.0817 34.6915 42.1136V32.7226C34.6915 31.7545 33.9035 30.9665 32.9358 30.9665H24.279V23.1419ZM18.5315 32.7226C18.5315 32.6074 18.6252 32.5137 18.74 32.5137H32.9358C33.0491 32.5137 33.1443 32.6093 33.1443 32.7226V42.1136C33.1443 42.2269 33.0491 42.3225 32.9358 42.3225H28.0155C27.5925 42.3225 27.248 42.6625 27.2419 43.0859L27.217 44.9715L24.6575 42.5355C24.514 42.3988 24.3229 42.3225 24.1242 42.3225H18.74C18.6252 42.3225 18.5315 42.2288 18.5315 42.1136V32.7226Z" fill="white"/>
<path d="M33.172 20.8714H35.69C36.1175 20.8714 36.4635 20.525 36.4635 20.0978C36.4635 19.6706 36.1175 19.3242 35.69 19.3242H33.172C32.7444 19.3242 32.3984 19.6706 32.3984 20.0978C32.3984 20.525 32.7444 20.8714 33.172 20.8714Z" fill="white"/>
<path d="M34.6294 50.4023H34.2267C33.7991 50.4023 33.4531 50.7487 33.4531 51.1759C33.4531 51.6031 33.7991 51.9495 34.2267 51.9495H34.6294C35.057 51.9495 35.403 51.6031 35.403 51.1759C35.403 50.7487 35.057 50.4023 34.6294 50.4023Z" fill="white"/>
<defs>
<linearGradient id="paint0_linear_1905_4658" x1="35.5" y1="0" x2="35.5" y2="71" gradientUnits="userSpaceOnUse">
<stop stop-color="#3EB9FC"/>
<stop offset="1" stop-color="#5F90FC"/>
</linearGradient>
</defs>
</svg>
