<svg width="71" height="71" viewBox="0 0 71 71" fill="none" xmlns="http://www.w3.org/2000/svg">
<circle cx="35.5" cy="35.5" r="35.5" fill="url(#paint0_linear_1905_4657)"/>
<g clip-path="url(#clip0_1905_4657)">
<path d="M56 34.1728V38.827C56 40.0057 55.041 40.9646 53.8624 40.9646H50.7176C50.3989 42.0522 49.9625 43.104 49.4161 44.1021L51.6412 46.327C52.4746 47.1605 52.4746 48.5167 51.6412 49.3501L48.3502 52.6412C48.3309 52.6604 48.3114 52.6793 48.2915 52.6976C48.1682 52.8119 48.012 52.8685 47.8561 52.8685C47.684 52.8685 47.5124 52.7995 47.3862 52.6633C47.1457 52.4038 47.161 51.9985 47.4205 51.7579C47.4285 51.7505 47.4364 51.7429 47.4442 51.7351L50.7352 48.4441C51.0691 48.1102 51.0691 47.5669 50.7352 47.233L48.1651 44.6629C47.9586 44.4564 47.9179 44.1364 48.0662 43.8847C48.753 42.7185 49.2724 41.4665 49.6097 40.1633C49.6829 39.8807 49.9379 39.6833 50.2299 39.6833H53.8623C54.3345 39.6833 54.7187 39.2991 54.7187 38.8269V34.1728C54.7187 33.7006 54.3345 33.3165 53.8623 33.3165H50.2299C49.9379 33.3165 49.683 33.1191 49.6098 32.8365C49.2718 31.5321 48.7524 30.28 48.0662 29.115C47.9179 28.8633 47.9586 28.5433 48.1651 28.3368L50.7353 25.7667C51.0691 25.4328 51.0691 24.8895 50.7352 24.5556L47.4442 21.2647C47.2836 21.104 47.0686 21.0156 46.8387 21.0156C46.6087 21.0156 46.3936 21.104 46.233 21.2647L43.663 23.8348C43.4565 24.0411 43.1367 24.082 42.8848 23.9337C41.7186 23.2468 40.4666 22.7274 39.1634 22.3902C38.8808 22.317 38.6833 22.0619 38.6833 21.7699V18.1376C38.6833 17.6655 38.2992 17.2812 37.8271 17.2812H33.1728C32.7007 17.2812 32.3166 17.6655 32.3166 18.1376V21.77C32.3166 22.062 32.1192 22.317 31.8367 22.3902C30.5322 22.7281 29.2801 23.2475 28.1151 23.9337C27.8633 24.082 27.5434 24.0412 27.3369 23.8348L24.7668 21.2647C24.6063 21.1041 24.3912 21.0157 24.1612 21.0157C23.9312 21.0157 23.7163 21.1041 23.5557 21.2647L20.2647 24.5557C19.9307 24.8896 19.9307 25.4329 20.2647 25.7669L22.8348 28.3368C23.0412 28.5434 23.082 28.8633 22.9337 29.115C22.2468 30.2812 21.7274 31.5333 21.3902 32.8365C21.317 33.1191 21.0619 33.3166 20.7699 33.3166H17.1376C16.6655 33.3166 16.2812 33.7007 16.2812 34.1728V38.827C16.2812 39.2991 16.6655 39.6833 17.1376 39.6833H20.77C21.062 39.6833 21.317 39.8807 21.3902 40.1633C21.7281 41.4677 22.2475 42.7198 22.9337 43.8848C23.082 44.1364 23.0413 44.4565 22.8348 44.663L20.2647 47.2331C19.9308 47.567 19.9308 48.1103 20.2647 48.4441L23.5558 51.7352C23.5644 51.7438 23.5718 51.751 23.5794 51.758C23.8389 51.9986 23.8542 52.4038 23.6138 52.6634C23.3732 52.9228 22.968 52.9382 22.7084 52.6977C22.6881 52.6789 22.668 52.6596 22.6485 52.6399L19.3587 49.3502C18.5254 48.5168 18.5254 47.1606 19.3587 46.3271L21.5838 44.1021C21.0377 43.1048 20.6015 42.0531 20.2824 40.9647H17.1376C15.959 40.9647 15 40.0057 15 38.8271V34.1729C15 32.9943 15.959 32.0354 17.1376 32.0354H20.2824C20.6011 30.9478 21.0375 29.896 21.5839 28.8979L19.3588 26.673C18.5254 25.8394 18.5254 24.4832 19.3588 23.6498L22.6499 20.3588C23.0524 19.9563 23.5892 19.7345 24.1613 19.7345C24.7335 19.7345 25.2703 19.9563 25.6729 20.3588L27.8979 22.5839C28.8952 22.0378 29.947 21.6015 31.0354 21.2824V18.1376C31.0353 16.9589 31.9943 16 33.1728 16H37.8271C39.0057 16 39.9646 16.9589 39.9646 18.1376V21.2824C41.0522 21.6011 42.104 22.0375 43.1021 22.5839L45.327 20.3588C45.7297 19.9563 46.2665 19.7345 46.8387 19.7345C47.4108 19.7345 47.9476 19.9563 48.3501 20.3589L51.6412 23.6498C52.4746 24.4832 52.4746 25.8394 51.6412 26.6729L49.4161 28.8979C49.9622 29.8952 50.3985 30.9469 50.7176 32.0354H53.8623C55.041 32.0353 56 32.9943 56 34.1728ZM43.3006 43.1805C43.4161 43.2677 43.5516 43.3098 43.686 43.3098C43.8801 43.3098 44.0718 43.2219 44.1978 43.055C45.6324 41.1543 46.3907 38.8875 46.3907 36.5C46.3907 30.4949 41.5051 25.6093 35.5 25.6093C29.4949 25.6093 24.6093 30.4949 24.6093 36.5C24.6093 38.8875 25.3676 41.1543 26.8022 43.055C27.0153 43.3374 27.4172 43.3935 27.6994 43.1804C27.9818 42.9673 28.038 42.5655 27.8248 42.2832C26.5594 40.6065 25.8905 38.6067 25.8905 36.4999C25.8905 31.2012 30.2013 26.8905 35.5 26.8905C40.7987 26.8905 45.1095 31.2013 45.1095 36.5C45.1095 38.6068 44.4406 40.6066 43.1752 42.2832C42.9621 42.5656 43.0182 42.9673 43.3006 43.1805ZM44.5905 45.2411C45.7566 46.5098 46.3987 48.152 46.3987 49.8653V56.3594C46.3987 56.7132 46.1119 57 45.7581 57H25.2419C24.8881 57 24.6013 56.7132 24.6013 56.3594V49.8653C24.6013 48.1519 25.2435 46.5098 26.4095 45.2411C27.5681 43.9807 29.1367 43.2019 30.8262 43.0484C31.1128 43.0216 31.3829 43.1915 31.4842 43.4617L32.6497 46.5736L33.517 48.8507L33.9711 46.4453L32.6269 43.9662C32.5193 43.7677 32.5241 43.5273 32.6396 43.3331C32.7551 43.1391 32.9642 43.0203 33.1901 43.0203H37.8099C38.0357 43.0203 38.2448 43.1391 38.3603 43.3331C38.4758 43.5273 38.4807 43.7677 38.373 43.9662L37.0289 46.4453L37.4829 48.8507L38.3515 46.5701L39.5157 43.4616C39.617 43.1913 39.886 43.0224 40.1736 43.0483C41.8633 43.2019 43.4319 43.9807 44.5905 45.2411ZM34.7618 55.7188L31.4511 47.0263L30.4634 44.3893C27.859 44.861 25.8825 47.1784 25.8825 49.8653V55.7188H34.7618ZM35.5 54.057L36.6112 51.1397L35.7277 46.4592C35.7004 46.3144 35.7237 46.1646 35.794 46.035L36.7338 44.3016H34.2662L35.206 46.035C35.2763 46.1646 35.2996 46.3144 35.2723 46.4592L34.3888 51.1397L35.5 54.057ZM45.1175 49.8653C45.1175 47.1784 43.141 44.861 40.5366 44.3893L39.5503 47.023L36.2382 55.7188H45.1175V49.8653ZM35.5 30.6799C38.7553 30.6799 41.4038 33.3283 41.4038 36.5838C41.4038 39.8393 38.7553 42.4877 35.5 42.4877C32.2446 42.4877 29.5961 39.8393 29.5961 36.5838C29.5961 33.3283 32.2446 30.6799 35.5 30.6799ZM35.5 31.9612C32.9511 31.9612 30.8773 34.0349 30.8773 36.5838C30.8773 39.1328 32.9511 41.2064 35.5 41.2064C38.0489 41.2064 40.1226 39.1327 40.1226 36.5838C40.1226 34.0348 38.0489 31.9612 35.5 31.9612Z" fill="white"/>
</g>
<defs>
<linearGradient id="paint0_linear_1905_4657" x1="35.5" y1="0" x2="35.5" y2="71" gradientUnits="userSpaceOnUse">
<stop stop-color="#3EB9FC"/>
<stop offset="1" stop-color="#5F90FC"/>
</linearGradient>
<clipPath id="clip0_1905_4657">
<rect width="41" height="41" fill="white" transform="translate(15 15)"/>
</clipPath>
</defs>
</svg>
