<svg width="20" height="20" viewBox="0 0 20 20" fill="none" xmlns="http://www.w3.org/2000/svg">
<path d="M10 0C4.486 0 0 4.43144 0 9.87804C0 15.3246 4.486 19.7561 10 19.7561C11.4793 19.7634 12.945 19.4349 14.3117 18.7896L19.0193 19.9814C19.068 19.9937 19.1178 20 19.1677 20C19.3815 19.9988 19.5818 19.8808 19.7063 19.6827C19.8309 19.4846 19.8644 19.2304 19.7967 18.9993L18.6027 14.92C19.5069 13.4401 19.9943 11.6814 20 9.87804C20 4.43144 15.514 0 10 0V0ZM17.9623 14.6374C17.9 14.7364 17.8831 14.8636 17.917 14.9793L19.164 19.2402L14.3523 18.0214C14.3286 18.0153 14.3043 18.0123 14.28 18.0122C14.2349 18.0124 14.1902 18.0228 14.1487 18.043C12.8372 18.6795 11.4254 19.0039 10 18.9962C4.85367 18.9962 0.666667 14.906 0.666667 9.87804C0.666667 4.85012 4.85367 0.75985 10 0.75985C15.1463 0.75985 19.3333 4.8505 19.3333 9.87804C19.3264 11.5893 18.8467 13.2545 17.9623 14.6374Z" fill="black"/>
<path d="M1.99516 9.87908C1.99584 8.87657 2.20126 7.88801 2.59516 6.99165C2.67536 6.80392 2.60761 6.57761 2.44347 6.4849C2.27932 6.39219 2.0803 6.46783 1.99782 6.65427C1.029 8.85841 1.11601 11.4741 2.22849 13.5883C2.28881 13.7054 2.39934 13.7769 2.51845 13.7758C2.63757 13.7748 2.74716 13.7015 2.80595 13.5834C2.86475 13.4653 2.86381 13.3205 2.80349 13.2034C2.27594 12.1987 1.99663 11.05 1.99516 9.87908Z" fill="black"/>
<path d="M9.79983 9.07213C10.0718 9.38125 10.475 9.48557 10.8374 9.34053C11.1997 9.19548 11.4572 8.82672 11.4998 8.39168L11.9058 4.21251C11.9393 3.86851 11.8337 3.52584 11.619 3.28111C11.4043 3.03637 11.1036 2.9161 10.8018 2.9542L7.13683 3.41885C6.75514 3.46745 6.4316 3.76091 6.30435 4.17392C6.17709 4.58694 6.26861 5.04653 6.53983 5.35646L7.1175 6.01449L4.90216 8.54023C4.51178 8.98532 4.51178 9.70679 4.90216 10.1519L5.59249 10.9387C5.98299 11.3836 6.616 11.3836 7.00649 10.9387L9.22183 8.41372L9.79983 9.07213ZM6.53583 10.4019C6.40386 10.5452 6.19646 10.5452 6.06449 10.4019L5.37416 9.61504C5.24403 9.46668 5.24403 9.22619 5.37416 9.07783L7.82516 6.28462C7.88775 6.21336 7.92292 6.11666 7.92292 6.01582C7.92292 5.91499 7.88775 5.81829 7.82516 5.74703L7.01183 4.82039C6.92136 4.71692 6.89095 4.5635 6.93361 4.42576C6.97626 4.28802 7.08442 4.19034 7.21183 4.17452L10.8785 3.71177C10.8908 3.71025 10.9031 3.70949 10.9155 3.70949C11.0102 3.70959 11.1005 3.75563 11.1636 3.83611C11.2268 3.91658 11.2569 4.02389 11.2465 4.13121L10.8405 8.31038C10.8266 8.45559 10.7409 8.57887 10.6201 8.62749C10.4992 8.6761 10.3646 8.64144 10.2738 8.53833L9.46083 7.61132C9.39831 7.53998 9.31347 7.49989 9.225 7.49989C9.13653 7.49989 9.05168 7.53998 8.98916 7.61132L6.53583 10.4019Z" fill="black"/>
<path d="M14.7413 8.81809C14.3508 8.37314 13.7178 8.37314 13.3273 8.81809L11.1119 11.3431L10.5339 10.6847C10.262 10.3755 9.85879 10.2712 9.49643 10.4163C9.13406 10.5613 8.87659 10.9301 8.83395 11.3651L8.42795 15.5443C8.39669 15.8662 8.48706 16.188 8.67647 16.4294C8.86589 16.6708 9.13647 16.809 9.42062 16.8094C9.45781 16.8094 9.49497 16.8071 9.53195 16.8026L13.1986 16.3398C13.5803 16.2912 13.9038 15.9978 14.0311 15.5848C14.1584 15.1717 14.0668 14.7122 13.7956 14.4022L13.2179 13.7442L15.4333 11.2192C15.8237 10.7741 15.8237 10.0527 15.4333 9.60757L14.7413 8.81809ZM14.9603 10.6797L12.5093 13.4729C12.4467 13.5442 12.4115 13.6409 12.4115 13.7417C12.4115 13.8426 12.4467 13.9393 12.5093 14.0105L13.3226 14.9372C13.4131 15.0406 13.4435 15.194 13.4008 15.3318C13.3582 15.4695 13.25 15.5672 13.1226 15.583L9.45595 16.0458C9.35524 16.0596 9.25462 16.0193 9.18362 15.9367C9.11178 15.8554 9.07654 15.741 9.08795 15.6263L9.49395 11.4472C9.5064 11.3013 9.59279 11.1774 9.71462 11.1307C9.75111 11.1159 9.78955 11.1083 9.82828 11.1083C9.91636 11.1089 10.0005 11.15 10.0616 11.2222L10.8746 12.1493C10.9371 12.2206 11.022 12.2607 11.1104 12.2607C11.1989 12.2607 11.2838 12.2206 11.3463 12.1493L13.7969 9.35568C13.9289 9.21239 14.1363 9.21239 14.2683 9.35568L14.9586 10.1425C15.0887 10.2909 15.0887 10.5314 14.9586 10.6797H14.9603Z" fill="black"/>
<path d="M2.9974 5.69735C3.18149 5.69735 3.33073 5.52725 3.33073 5.31742C3.33073 5.1076 3.18149 4.9375 2.9974 4.9375C2.8133 4.9375 2.66406 5.1076 2.66406 5.31742C2.66406 5.52725 2.8133 5.69735 2.9974 5.69735Z" fill="black"/>
</svg>
