<svg width="20" height="20" viewBox="0 0 20 20" fill="none" xmlns="http://www.w3.org/2000/svg">
<path d="M18.0664 12.2217L16.7871 11.1279C16.8477 10.7568 16.8789 10.3779 16.8789 9.99902C16.8789 9.62012 16.8477 9.24121 16.7871 8.87012L18.0664 7.77637C18.1629 7.69376 18.232 7.58374 18.2644 7.46093C18.2969 7.33813 18.2911 7.20835 18.248 7.08887L18.2305 7.03808C17.8783 6.05376 17.3509 5.14128 16.6738 4.34473L16.6387 4.30371C16.5565 4.20713 16.4471 4.13771 16.3247 4.10458C16.2023 4.07146 16.0728 4.0762 15.9531 4.11816L14.3652 4.68262C13.7793 4.20215 13.125 3.82324 12.418 3.55762L12.1113 1.89746C12.0882 1.77254 12.0276 1.65762 11.9376 1.56796C11.8476 1.47831 11.7324 1.41816 11.6074 1.39551L11.5547 1.38574C10.5371 1.20215 9.4668 1.20215 8.44922 1.38574L8.39649 1.39551C8.27148 1.41816 8.15632 1.47831 8.06632 1.56796C7.97631 1.65762 7.91572 1.77254 7.89258 1.89746L7.58399 3.56543C6.8826 3.83111 6.22943 4.20981 5.65039 4.68652L4.05078 4.11816C3.93119 4.07586 3.80155 4.07096 3.6791 4.1041C3.55664 4.13724 3.44718 4.20686 3.36524 4.30371L3.33008 4.34473C2.65381 5.14184 2.12652 6.05417 1.77344 7.03808L1.75586 7.08887C1.66797 7.33301 1.74024 7.60644 1.9375 7.77637L3.23243 8.88183C3.17188 9.24902 3.14258 9.62402 3.14258 9.99707C3.14258 10.3721 3.17188 10.7471 3.23243 11.1123L1.9375 12.2178C1.84101 12.3004 1.77195 12.4104 1.7395 12.5332C1.70706 12.656 1.71276 12.7858 1.75586 12.9053L1.77344 12.9561C2.12696 13.9404 2.65039 14.8486 3.33008 15.6494L3.36524 15.6904C3.44738 15.787 3.55685 15.8564 3.67923 15.8896C3.80161 15.9227 3.93115 15.9179 4.05078 15.876L5.65039 15.3076C6.23243 15.7861 6.88281 16.165 7.58399 16.4287L7.89258 18.0967C7.91572 18.2216 7.97631 18.3365 8.06632 18.4262C8.15632 18.5158 8.27148 18.576 8.39649 18.5986L8.44922 18.6084C9.47615 18.793 10.5278 18.793 11.5547 18.6084L11.6074 18.5986C11.7324 18.576 11.8476 18.5158 11.9376 18.4262C12.0276 18.3365 12.0882 18.2216 12.1113 18.0967L12.418 16.4365C13.1247 16.1716 13.7827 15.7914 14.3652 15.3115L15.9531 15.876C16.0727 15.9183 16.2024 15.9232 16.3248 15.89C16.4473 15.8569 16.5567 15.7873 16.6387 15.6904L16.6738 15.6494C17.3535 14.8467 17.877 13.9404 18.2305 12.9561L18.248 12.9053C18.3359 12.665 18.2637 12.3916 18.0664 12.2217ZM15.4004 9.10058C15.4492 9.39551 15.4746 9.69824 15.4746 10.001C15.4746 10.3037 15.4492 10.6064 15.4004 10.9014L15.2715 11.6846L16.7305 12.9326C16.5093 13.4422 16.2301 13.9245 15.8984 14.3701L14.0859 13.7275L13.4727 14.2314C13.0059 14.6143 12.4863 14.915 11.9238 15.126L11.1797 15.4053L10.8301 17.2998C10.2785 17.3623 9.72154 17.3623 9.16992 17.2998L8.82031 15.4014L8.08203 15.1182C7.52539 14.9072 7.00782 14.6064 6.54492 14.2256L5.93164 13.7197L4.10743 14.3682C3.77539 13.9209 3.49805 13.4385 3.27539 12.9307L4.75 11.6709L4.62305 10.8896C4.57618 10.5986 4.55078 10.2978 4.55078 10.001C4.55078 9.70215 4.57422 9.40332 4.62305 9.1123L4.75 8.33105L3.27539 7.07129C3.4961 6.56152 3.77539 6.08105 4.10743 5.63379L5.93164 6.28223L6.54492 5.77637C7.00782 5.39551 7.52539 5.09473 8.08203 4.88379L8.82227 4.60449L9.17188 2.70605C9.72071 2.64355 10.2813 2.64355 10.832 2.70605L11.1816 4.60059L11.9258 4.87988C12.4863 5.09082 13.0078 5.3916 13.4746 5.77441L14.0879 6.27832L15.9004 5.63574C16.2324 6.08301 16.5098 6.56543 16.7324 7.07324L15.2734 8.32129L15.4004 9.10058ZM10.0039 6.36816C8.10547 6.36816 6.56641 7.90723 6.56641 9.80566C6.56641 11.7041 8.10547 13.2432 10.0039 13.2432C11.9023 13.2432 13.4414 11.7041 13.4414 9.80566C13.4414 7.90723 11.9023 6.36816 10.0039 6.36816ZM11.5508 11.3525C11.3479 11.556 11.1068 11.7174 10.8413 11.8273C10.5758 11.9372 10.2912 11.9936 10.0039 11.9932C9.41992 11.9932 8.8711 11.7646 8.45703 11.3525C8.25356 11.1497 8.09222 10.9085 7.98227 10.6431C7.87233 10.3776 7.81596 10.093 7.81641 9.80566C7.81641 9.22168 8.04492 8.67285 8.45703 8.25879C8.8711 7.84472 9.41992 7.61816 10.0039 7.61816C10.5879 7.61816 11.1367 7.84472 11.5508 8.25879C11.7543 8.46167 11.9156 8.70279 12.0255 8.96826C12.1355 9.23373 12.1919 9.51832 12.1914 9.80566C12.1914 10.3896 11.9629 10.9385 11.5508 11.3525Z" fill="#585858"/>
</svg>
