<svg width="20" height="20" viewBox="0 0 20 20" fill="none" xmlns="http://www.w3.org/2000/svg">
<g clip-path="url(#clip0_1834_4856)">
<path d="M18.1584 19.9991C17.8584 19.9991 17.6584 19.8991 17.3384 19.7991L14.0984 18.1791C12.2784 19.0991 10.2584 19.3991 8.21841 19.0991C4.15841 18.4991 0.91841 15.2591 0.218411 11.1991C-0.181589 7.95911 0.81841 4.71911 3.25841 2.59911C5.69841 0.359105 8.93841 -0.460895 12.1784 0.239105C15.7184 1.05911 18.4584 3.99911 19.1784 7.53911C19.5784 9.55911 19.3784 11.5991 18.5784 13.4191L19.7984 17.6791C19.9984 18.3791 19.7984 19.0991 19.2984 19.4991C18.9584 19.7991 18.5584 19.9991 18.1584 19.9991ZM14.1984 16.1591C14.4984 16.1591 14.7984 16.2591 15.1184 16.3591L17.7584 17.6791L16.6384 14.0391C16.5384 13.6391 16.5384 13.1191 16.7384 12.6191C17.3384 11.1991 17.5584 9.57911 17.2384 7.95911C16.6384 5.11911 14.4984 2.89911 11.6584 2.17911C9.01841 1.57911 6.49841 2.17911 4.57841 3.99911C2.75841 5.71911 1.83841 8.35911 2.25841 10.8791C2.75841 14.0191 5.39841 16.6591 8.53841 17.0591C10.1584 17.2591 11.7784 17.0591 13.1984 16.3591C13.4984 16.2591 13.8984 16.1591 14.1984 16.1591Z" fill="#585858"/>
<path d="M5.49812 10.8791C6.28237 10.8791 6.91812 10.2433 6.91812 9.45906C6.91812 8.67482 6.28237 8.03906 5.49812 8.03906C4.71388 8.03906 4.07812 8.67482 4.07812 9.45906C4.07812 10.2433 4.71388 10.8791 5.49812 10.8791Z" fill="#585858"/>
<path d="M9.95906 10.8791C10.7433 10.8791 11.3791 10.2433 11.3791 9.45906C11.3791 8.67482 10.7433 8.03906 9.95906 8.03906C9.17482 8.03906 8.53906 8.67482 8.53906 9.45906C8.53906 10.2433 9.17482 10.8791 9.95906 10.8791Z" fill="#585858"/>
<path d="M14.42 10.8791C15.2042 10.8791 15.84 10.2433 15.84 9.45906C15.84 8.67482 15.2042 8.03906 14.42 8.03906C13.6358 8.03906 13 8.67482 13 9.45906C13 10.2433 13.6358 10.8791 14.42 10.8791Z" fill="#585858"/>
</g>
<defs>
<clipPath id="clip0_1834_4856">
<rect width="20" height="20" fill="white"/>
</clipPath>
</defs>
</svg>
