<svg width="20" height="20" viewBox="0 0 20 20" fill="none" xmlns="http://www.w3.org/2000/svg">
<path d="M8.55419 4.24075L5.1712 0.335986C4.78121 -0.113987 4.06621 -0.111987 3.61321 0.341986L0.831228 3.12882C0.0032324 3.95777 -0.233767 5.1887 0.245231 6.17564C3.10683 12.1002 7.88524 16.8851 13.8062 19.7548C14.7922 20.2338 16.0221 19.9968 16.8501 19.1679L19.6581 16.355C20.1131 15.9001 20.1141 15.1811 19.6601 14.7911L15.7401 11.4263C15.3301 11.0743 14.6932 11.1203 14.2822 11.5323L12.9182 12.8982C12.8483 12.9714 12.7564 13.0197 12.6565 13.0356C12.5566 13.0514 12.4543 13.0341 12.3652 12.9862C10.1356 11.7024 8.28618 9.85065 7.00519 7.61955C6.95722 7.53031 6.93985 7.42779 6.95575 7.32772C6.97164 7.22766 7.01993 7.13557 7.09319 7.06558L8.45319 5.70466C8.86518 5.29069 8.91018 4.65073 8.55419 4.23975V4.24075Z" fill="#2D4C8B"/>
</svg>
