<svg width="20" height="20" viewBox="0 0 20 20" fill="none" xmlns="http://www.w3.org/2000/svg">
<path d="M2.96875 9.375C3.44177 9.375 3.87146 9.18686 4.18777 8.88184L5.91232 9.74411C5.90347 9.81522 5.89844 9.88739 5.89844 9.96094C5.89844 10.9302 6.68701 11.7188 7.65625 11.7188C8.62549 11.7188 9.41406 10.9302 9.41406 9.96094C9.41406 9.68994 9.35226 9.43298 9.24225 9.20349L11.5863 6.85944C11.8158 6.96945 12.0728 7.03125 12.3438 7.03125C13.313 7.03125 14.1016 6.24268 14.1016 5.27344C14.1016 5.09033 14.0733 4.91379 14.0211 4.74777L16.0576 3.22052C16.3365 3.40683 16.6713 3.51562 17.0312 3.51562C18.0005 3.51562 18.7891 2.72705 18.7891 1.75781C18.7891 0.788574 18.0005 0 17.0312 0C16.062 0 15.2734 0.788574 15.2734 1.75781C15.2734 1.94092 15.3017 2.11746 15.3539 2.28348L13.3174 3.81073C13.0385 3.62442 12.7037 3.51562 12.3438 3.51562C11.3745 3.51562 10.5859 4.3042 10.5859 5.27344C10.5859 5.54443 10.6477 5.80139 10.7578 6.03088L8.4137 8.37494C8.1842 8.26492 7.92725 8.20312 7.65625 8.20312C7.18323 8.20312 6.75354 8.39127 6.43723 8.69629L4.71268 7.83401C4.72153 7.76291 4.72656 7.69073 4.72656 7.61719C4.72656 6.64795 3.93799 5.85938 2.96875 5.85938C1.99951 5.85938 1.21094 6.64795 1.21094 7.61719C1.21094 8.58643 1.99951 9.375 2.96875 9.375ZM17.0312 1.17188C17.3543 1.17188 17.6172 1.43478 17.6172 1.75781C17.6172 2.08084 17.3543 2.34375 17.0312 2.34375C16.7082 2.34375 16.4453 2.08084 16.4453 1.75781C16.4453 1.43478 16.7082 1.17188 17.0312 1.17188ZM12.3438 4.6875C12.6668 4.6875 12.9297 4.95041 12.9297 5.27344C12.9297 5.59647 12.6668 5.85938 12.3438 5.85938C12.0207 5.85938 11.7578 5.59647 11.7578 5.27344C11.7578 4.95041 12.0207 4.6875 12.3438 4.6875ZM7.65625 9.375C7.97928 9.375 8.24219 9.63791 8.24219 9.96094C8.24219 10.284 7.97928 10.5469 7.65625 10.5469C7.33322 10.5469 7.07031 10.284 7.07031 9.96094C7.07031 9.63791 7.33322 9.375 7.65625 9.375ZM2.96875 7.03125C3.29178 7.03125 3.55469 7.29416 3.55469 7.61719C3.55469 7.94022 3.29178 8.20312 2.96875 8.20312C2.64572 8.20312 2.38281 7.94022 2.38281 7.61719C2.38281 7.29416 2.64572 7.03125 2.96875 7.03125Z" fill="#585858"/>
<path d="M19.4141 18.8281H18.7891V6.44531C18.7891 6.12167 18.5268 5.85938 18.2031 5.85938H15.8594C15.5357 5.85938 15.2734 6.12167 15.2734 6.44531V18.8281H14.1016V9.96094C14.1016 9.6373 13.8393 9.375 13.5156 9.375H11.1719C10.8482 9.375 10.5859 9.6373 10.5859 9.96094V18.8281H9.41406V14.6484C9.41406 14.3248 9.15176 14.0625 8.82812 14.0625H6.48438C6.16074 14.0625 5.89844 14.3248 5.89844 14.6484V18.8281H4.72656V12.3047C4.72656 11.981 4.46426 11.7188 4.14062 11.7188H1.79688C1.47324 11.7188 1.21094 11.981 1.21094 12.3047V18.8281H0.585938C0.262299 18.8281 0 19.0904 0 19.4141C0 19.7377 0.262299 20 0.585938 20H19.4141C19.7377 20 20 19.7377 20 19.4141C20 19.0904 19.7377 18.8281 19.4141 18.8281ZM16.4453 7.03125H17.6172V18.8281H16.4453V7.03125ZM11.7578 10.5469H12.9297V18.8281H11.7578V10.5469ZM7.07031 15.2344H8.24219V18.8281H7.07031V15.2344ZM2.38281 12.8906H3.55469V18.8281H2.38281V12.8906Z" fill="#585858"/>
</svg>
