<svg width="26" height="25" viewBox="0 0 26 25" fill="none" xmlns="http://www.w3.org/2000/svg">
<g clip-path="url(#clip0_2002_3934)">
<path d="M13.0011 14.2129C5.18906 14.2129 0.886719 17.7664 0.886719 24.219C0.886719 24.7229 1.3115 25.1314 1.83562 25.1314H24.1665C24.6906 25.1314 25.1154 24.7229 25.1154 24.219C25.1155 17.7667 20.8131 14.2129 13.0011 14.2129ZM2.81905 23.3066C3.19229 18.4821 6.61307 16.0377 13.0011 16.0377C19.3891 16.0377 22.8099 18.4821 23.1835 23.3066H2.81905Z" fill="#585858"/>
<path d="M13.0014 0C9.41296 0 6.70703 2.6542 6.70703 6.17368C6.70703 9.79624 9.53067 12.743 13.0014 12.743C16.4722 12.743 19.2958 9.79624 19.2958 6.17397C19.2958 2.6542 16.5899 0 13.0014 0ZM13.0014 10.9185C10.577 10.9185 8.60483 8.79014 8.60483 6.17397C8.60483 3.65391 10.4539 1.8248 13.0014 1.8248C15.5081 1.8248 17.398 3.69434 17.398 6.17397C17.398 8.79014 15.4259 10.9185 13.0014 10.9185Z" fill="#585858"/>
</g>
<defs>
<clipPath id="clip0_2002_3934">
<rect width="26" height="25" fill="white"/>
</clipPath>
</defs>
</svg>
