<svg width="45" height="28" viewBox="0 0 45 28" fill="none" xmlns="http://www.w3.org/2000/svg">
<path d="M18.2597 20.08C18.2597 20.8733 18.0381 21.55 17.5947 22.11C17.1747 22.67 16.4397 22.95 15.3897 22.95C14.6664 22.95 13.9314 22.8217 13.1847 22.565C12.4614 22.3083 11.7497 21.97 11.0497 21.55C10.3497 21.13 9.67306 20.64 9.01973 20.08C8.38973 19.52 7.81806 18.9367 7.30473 18.33C7.25806 18.54 7.18806 18.8433 7.09473 19.24C7.00139 19.6367 6.88473 20.0333 6.74473 20.43C6.60473 20.8267 6.44139 21.1767 6.25473 21.48C6.09139 21.76 5.91639 21.9 5.72973 21.9C5.42639 21.9 5.08806 21.7483 4.71473 21.445C4.36473 21.1417 4.00306 20.745 3.62973 20.255C3.27973 19.7417 2.92973 19.1583 2.57973 18.505C2.25306 17.8517 1.96139 17.175 1.70473 16.475C1.02806 14.5383 0.596393 13.0217 0.409727 11.925C0.22306 10.805 0.129727 10.1983 0.129727 10.105C0.129727 9.965 0.15306 9.83667 0.199727 9.72C0.246393 9.60333 0.351393 9.545 0.514727 9.545C0.771393 9.545 0.95806 9.62667 1.07473 9.79C1.21473 9.93 1.30806 10.1167 1.35473 10.35C1.47139 10.84 1.62306 11.4117 1.80973 12.065C2.01973 12.695 2.24139 13.3483 2.47473 14.025C2.73139 14.7017 2.98806 15.3667 3.24473 16.02C3.52473 16.65 3.79306 17.2217 4.04973 17.735C4.30639 18.2483 4.55139 18.6683 4.78473 18.995C5.01806 19.2983 5.21639 19.45 5.37973 19.45C5.54306 19.45 5.65973 19.3217 5.72973 19.065C5.82306 18.785 5.89306 18.47 5.93973 18.12C5.98639 17.77 6.00973 17.4317 6.00973 17.105C6.03306 16.7783 6.04473 16.5567 6.04473 16.44C5.92806 16.23 5.83473 15.985 5.76473 15.705C5.71806 15.425 5.69473 15.1917 5.69473 15.005C5.69473 14.7017 5.76473 14.445 5.90473 14.235C6.06806 14.025 6.21973 13.92 6.35973 13.92C6.45306 13.92 6.51139 13.9317 6.53473 13.955C6.58139 13.9783 6.63973 14.0017 6.70973 14.025C6.77973 14.025 6.83806 14.025 6.88473 14.025C6.93139 14.0017 6.98973 13.99 7.05973 13.99C7.10639 13.99 7.15306 14.0133 7.19973 14.06C7.26973 14.0833 7.33973 14.1767 7.40973 14.34C7.71306 15.1333 8.14473 15.95 8.70473 16.79C9.26473 17.63 9.89473 18.3883 10.5947 19.065C11.2947 19.7417 12.0531 20.3017 12.8697 20.745C13.6864 21.1883 14.5147 21.41 15.3547 21.41C15.6581 21.41 15.9381 21.3167 16.1947 21.13C16.4514 20.92 16.5797 20.6517 16.5797 20.325C16.5797 19.345 16.4747 18.3417 16.2647 17.315C16.0781 16.2883 15.8097 15.2383 15.4597 14.165C15.1331 13.0917 14.7481 12.0067 14.3047 10.91C13.8614 9.79 13.4064 8.64667 12.9397 7.48C12.5431 6.5 12.1581 5.73 11.7847 5.17C11.4347 4.58667 11.1197 4.13167 10.8397 3.805C10.5831 3.455 10.3731 3.175 10.2097 2.965C10.0464 2.73167 9.96473 2.45167 9.96473 2.125C9.96473 1.72833 10.1047 1.43667 10.3847 1.25C10.6881 1.06333 11.0031 0.969998 11.3297 0.969998C11.5164 0.969998 11.7264 1.15667 11.9597 1.53C12.1931 1.88 12.4381 2.34667 12.6947 2.93C12.9514 3.49 13.2081 4.12 13.4647 4.82C13.7214 5.52 13.9781 6.22 14.2347 6.92C14.6081 7.94667 15.0281 9.055 15.4947 10.245C15.9614 11.4117 16.3931 12.59 16.7897 13.78C17.2097 14.9467 17.5597 16.0783 17.8397 17.175C18.1197 18.2717 18.2597 19.24 18.2597 20.08ZM26.1255 20.67C26.1855 20.73 26.2155 20.766 26.2155 20.778C26.2155 20.802 26.1795 20.874 26.1075 20.994C26.0475 21.114 25.9635 21.24 25.8555 21.372C25.7475 21.504 25.6275 21.624 25.4955 21.732C25.3755 21.828 25.2555 21.876 25.1355 21.876C24.8835 21.876 24.6795 21.828 24.5235 21.732C24.3675 21.624 24.2355 21.492 24.1275 21.336C24.0315 21.18 23.9535 21.012 23.8935 20.832C23.8455 20.64 23.8035 20.46 23.7675 20.292C23.7435 20.208 23.7195 20.166 23.6955 20.166C23.6595 20.166 23.5875 20.298 23.4795 20.562C23.3715 20.814 23.2515 21.096 23.1195 21.408C22.9995 21.708 22.8795 21.99 22.7595 22.254C22.6515 22.506 22.5795 22.632 22.5435 22.632C22.3275 22.632 22.1415 22.542 21.9855 22.362C21.8415 22.17 21.7215 21.954 21.6255 21.714C21.5415 21.462 21.4755 21.21 21.4275 20.958C21.3795 20.694 21.3495 20.49 21.3375 20.346C21.3015 20.022 21.2235 19.482 21.1035 18.726C20.9835 17.97 20.8815 17.052 20.7975 15.972C20.7735 15.744 20.7435 15.54 20.7075 15.36C20.6835 15.168 20.6535 14.958 20.6175 14.73C20.5815 14.502 20.5515 14.244 20.5275 13.956C20.5035 13.668 20.4915 13.314 20.4915 12.894C20.4915 12.87 20.4975 12.792 20.5095 12.66C20.5215 12.528 20.5395 12.384 20.5635 12.228C20.5875 12.072 20.6235 11.934 20.6715 11.814C20.7315 11.694 20.7975 11.634 20.8695 11.634C20.9535 11.634 21.0315 11.688 21.1035 11.796C21.1755 11.892 21.2355 12.006 21.2835 12.138C21.3435 12.27 21.3855 12.396 21.4095 12.516C21.4335 12.636 21.4455 12.72 21.4455 12.768C21.4455 12.948 21.4335 13.116 21.4095 13.272C21.3855 13.428 21.3735 13.572 21.3735 13.704C21.3735 13.884 21.3855 14.112 21.4095 14.388C21.4455 14.664 21.4875 14.946 21.5355 15.234C21.5835 15.522 21.6255 15.804 21.6615 16.08C21.6975 16.344 21.7275 16.56 21.7515 16.728C21.7515 16.74 21.7635 16.824 21.7875 16.98C21.8115 17.136 21.8355 17.334 21.8595 17.574C21.8955 17.802 21.9255 18.054 21.9495 18.33C21.9855 18.594 22.0215 18.858 22.0575 19.122C22.0935 19.374 22.1235 19.602 22.1475 19.806C22.1835 19.998 22.2075 20.136 22.2195 20.22C22.2195 20.256 22.2255 20.31 22.2375 20.382C22.2615 20.442 22.2795 20.514 22.2915 20.598C22.3155 20.682 22.3395 20.76 22.3635 20.832C22.3875 20.904 22.4175 20.958 22.4535 20.994C22.5255 20.85 22.6155 20.628 22.7235 20.328C22.8435 20.028 22.9635 19.722 23.0835 19.41C23.2155 19.098 23.3355 18.828 23.4435 18.6C23.5635 18.36 23.6655 18.24 23.7495 18.24C23.8455 18.24 23.9235 18.258 23.9835 18.294C24.0435 18.33 24.1215 18.36 24.2175 18.384C24.3375 18.432 24.3975 18.498 24.3975 18.582C24.3975 18.654 24.4095 18.744 24.4335 18.852C24.4575 18.996 24.4935 19.188 24.5415 19.428C24.6015 19.656 24.6675 19.884 24.7395 20.112C24.8115 20.328 24.8955 20.514 24.9915 20.67C25.0875 20.826 25.1835 20.904 25.2795 20.904C25.3275 20.904 25.3935 20.844 25.4775 20.724C25.5615 20.592 25.6755 20.52 25.8195 20.508C25.8435 20.508 25.8855 20.526 25.9455 20.562C26.0055 20.586 26.0655 20.622 26.1255 20.67ZM35.8237 20.256C35.8237 20.472 35.7217 20.742 35.5177 21.066C35.3257 21.378 35.0617 21.684 34.7257 21.984C34.3897 22.284 33.9997 22.542 33.5557 22.758C33.1117 22.962 32.6497 23.064 32.1697 23.064C31.9537 23.064 31.7257 23.028 31.4857 22.956C31.2457 22.884 31.0117 22.782 30.7837 22.65C30.5557 22.506 30.3517 22.338 30.1717 22.146C29.9917 21.942 29.8597 21.714 29.7757 21.462C29.7037 21.534 29.6137 21.654 29.5057 21.822C29.4097 21.99 29.3017 22.164 29.1817 22.344C29.0617 22.512 28.9297 22.662 28.7857 22.794C28.6417 22.914 28.4917 22.974 28.3357 22.974C28.1797 22.974 28.0477 22.896 27.9397 22.74C27.8437 22.572 27.7657 22.392 27.7057 22.2C27.6457 21.996 27.6037 21.804 27.5797 21.624C27.5557 21.444 27.5437 21.342 27.5437 21.318C27.5437 21.174 27.5857 20.904 27.6697 20.508C27.7537 20.1 27.8797 19.68 28.0477 19.248C28.2157 18.816 28.4257 18.432 28.6777 18.096C28.9417 17.76 29.2477 17.592 29.5957 17.592C29.7277 17.592 29.8117 17.652 29.8477 17.772C29.8957 17.88 29.9197 17.988 29.9197 18.096V18.636C29.9797 18.684 30.0397 18.72 30.0997 18.744C30.1717 18.756 30.2317 18.78 30.2797 18.816C30.3397 18.84 30.3817 18.882 30.4057 18.942C30.4417 19.002 30.4597 19.098 30.4597 19.23C30.4597 19.314 30.4537 19.392 30.4417 19.464C30.4297 19.524 30.4237 19.584 30.4237 19.644C30.4237 19.956 30.4477 20.262 30.4957 20.562C30.5437 20.862 30.6397 21.132 30.7837 21.372C30.9277 21.6 31.1257 21.792 31.3777 21.948C31.6297 22.092 31.9657 22.164 32.3857 22.164C32.9137 22.164 33.3577 22.056 33.7177 21.84C34.0897 21.612 34.3957 21.366 34.6357 21.102C34.8877 20.826 35.0857 20.58 35.2297 20.364C35.3737 20.136 35.4937 20.022 35.5897 20.022C35.7457 20.022 35.8237 20.1 35.8237 20.256ZM29.5057 19.464C29.5057 19.416 29.4937 19.374 29.4697 19.338C29.4457 19.29 29.4337 19.248 29.4337 19.212C29.4337 19.164 29.4457 19.122 29.4697 19.086C29.4937 19.05 29.5057 19.002 29.5057 18.942C29.5057 18.906 29.4937 18.882 29.4697 18.87C29.4457 18.846 29.4337 18.822 29.4337 18.798C29.3257 18.822 29.2117 18.924 29.0917 19.104C28.9837 19.284 28.8757 19.494 28.7677 19.734C28.6717 19.974 28.5937 20.22 28.5337 20.472C28.4737 20.712 28.4437 20.91 28.4437 21.066C28.4437 21.15 28.4677 21.288 28.5157 21.48C28.5637 21.672 28.6177 21.798 28.6777 21.858C28.8817 21.438 29.0677 21.03 29.2357 20.634C29.4157 20.238 29.5057 19.848 29.5057 19.464ZM41.8232 18.798C41.8232 19.11 41.7332 19.41 41.5532 19.698C41.3852 19.986 41.1752 20.256 40.9232 20.508C40.6712 20.748 40.3952 20.976 40.0952 21.192C39.7952 21.396 39.5192 21.576 39.2672 21.732C39.0272 21.9 38.8292 22.038 38.6732 22.146C38.5172 22.254 38.4392 22.338 38.4392 22.398C38.4392 22.554 38.4572 22.776 38.4932 23.064C38.5292 23.34 38.5712 23.646 38.6192 23.982C38.6792 24.306 38.7332 24.642 38.7812 24.99C38.8412 25.338 38.8832 25.656 38.9072 25.944C38.9072 25.956 38.9132 26.01 38.9252 26.106C38.9492 26.202 38.9732 26.31 38.9972 26.43C39.0332 26.55 39.0572 26.658 39.0692 26.754C39.0932 26.862 39.1052 26.928 39.1052 26.952C39.1052 27.036 39.0992 27.126 39.0872 27.222C39.0872 27.33 39.0692 27.426 39.0332 27.51C39.0092 27.606 38.9672 27.684 38.9072 27.744C38.8472 27.804 38.7692 27.834 38.6732 27.834C38.5412 27.834 38.4452 27.774 38.3852 27.654C38.3252 27.546 38.2952 27.438 38.2952 27.33C38.2952 27.306 38.2952 27.282 38.2952 27.258C38.3072 27.234 38.3132 27.204 38.3132 27.168C38.3132 27.036 38.2652 26.682 38.1692 26.106C38.0732 25.53 37.9652 24.84 37.8452 24.036C37.7252 23.244 37.6172 22.392 37.5212 21.48C37.4252 20.556 37.3772 19.686 37.3772 18.87C37.3772 18.81 37.3832 18.744 37.3952 18.672C37.4072 18.588 37.4132 18.516 37.4132 18.456C37.2932 18.468 37.1132 18.522 36.8732 18.618C36.6452 18.714 36.4172 18.834 36.1892 18.978C35.9612 19.11 35.7572 19.254 35.5772 19.41C35.4092 19.554 35.3252 19.686 35.3252 19.806H35.1992C35.1632 19.806 35.1212 19.782 35.0732 19.734C35.0132 19.686 34.9652 19.632 34.9292 19.572C34.8812 19.512 34.8392 19.452 34.8032 19.392C34.7672 19.332 34.7492 19.29 34.7492 19.266C34.7492 19.014 34.8992 18.78 35.1992 18.564C35.4992 18.336 35.8712 18.138 36.3152 17.97C36.7712 17.79 37.2692 17.652 37.8092 17.556C38.3492 17.448 38.8592 17.394 39.3392 17.394C39.8072 17.394 40.1972 17.448 40.5092 17.556C40.8332 17.664 41.0912 17.796 41.2832 17.952C41.4752 18.096 41.6132 18.246 41.6972 18.402C41.7812 18.558 41.8232 18.69 41.8232 18.798ZM40.9412 18.744C40.9412 18.624 40.7912 18.504 40.4912 18.384C40.1912 18.252 39.8372 18.186 39.4292 18.186C39.0692 18.186 38.8052 18.198 38.6372 18.222C38.4692 18.246 38.3552 18.27 38.2952 18.294C38.2712 18.486 38.2532 18.714 38.2412 18.978C38.2292 19.242 38.2232 19.512 38.2232 19.788C38.2232 20.076 38.2292 20.358 38.2412 20.634C38.2652 20.898 38.2892 21.12 38.3132 21.3C38.4812 21.192 38.7092 21.048 38.9972 20.868C39.2972 20.676 39.5912 20.466 39.8792 20.238C40.1672 19.998 40.4132 19.752 40.6172 19.5C40.8332 19.236 40.9412 18.984 40.9412 18.744ZM43.8924 15.72C43.8924 15.744 43.8504 15.792 43.7664 15.864C43.6824 15.936 43.5804 16.014 43.4604 16.098C43.3524 16.17 43.2384 16.236 43.1184 16.296C42.9984 16.356 42.9024 16.386 42.8304 16.386C42.7824 16.386 42.7164 16.386 42.6324 16.386C42.5604 16.374 42.4824 16.35 42.3984 16.314C42.3264 16.278 42.2604 16.23 42.2004 16.17C42.1404 16.098 42.1104 16.008 42.1104 15.9C42.1104 15.732 42.1704 15.576 42.2904 15.432C42.4104 15.276 42.5664 15.198 42.7584 15.198C42.7944 15.198 42.8724 15.216 42.9924 15.252C43.1244 15.276 43.2564 15.312 43.3884 15.36C43.5204 15.408 43.6344 15.462 43.7304 15.522C43.8384 15.582 43.8924 15.648 43.8924 15.72ZM44.4864 22.452C44.4864 22.536 44.4204 22.608 44.2884 22.668C44.1684 22.728 44.0784 22.758 44.0184 22.758C43.8984 22.758 43.7904 22.68 43.6944 22.524C43.5984 22.368 43.5144 22.188 43.4424 21.984C43.3704 21.78 43.3104 21.588 43.2624 21.408C43.2144 21.216 43.1784 21.084 43.1544 21.012C43.1184 20.892 43.0704 20.748 43.0104 20.58C42.9504 20.412 42.8904 20.25 42.8304 20.094C42.7824 19.938 42.7404 19.8 42.7044 19.68C42.6684 19.56 42.6504 19.494 42.6504 19.482C42.6504 19.314 42.6804 19.158 42.7404 19.014C42.8124 18.87 42.8964 18.798 42.9924 18.798C43.1004 18.798 43.2144 18.882 43.3344 19.05C43.4544 19.218 43.5684 19.434 43.6764 19.698C43.7964 19.95 43.9044 20.232 44.0004 20.544C44.0964 20.844 44.1804 21.132 44.2524 21.408C44.3244 21.672 44.3784 21.906 44.4144 22.11C44.4624 22.302 44.4864 22.416 44.4864 22.452Z" fill="white" fill-opacity="0.8"/>
</svg>
