<svg width="89" height="70" viewBox="0 0 89 70" fill="none" xmlns="http://www.w3.org/2000/svg">
<path d="M36.7792 45.16C36.7792 46.7467 36.3359 48.1 35.4492 49.22C34.6092 50.34 33.1392 50.9 31.0392 50.9C29.5926 50.9 28.1226 50.6433 26.6292 50.13C25.1826 49.6167 23.7592 48.94 22.3592 48.1C20.9592 47.26 19.6059 46.28 18.2992 45.16C17.0392 44.04 15.8959 42.8733 14.8692 41.66C14.7759 42.08 14.6359 42.6867 14.4492 43.48C14.2626 44.2733 14.0292 45.0667 13.7492 45.86C13.4692 46.6533 13.1426 47.3533 12.7692 47.96C12.4426 48.52 12.0926 48.8 11.7192 48.8C11.1126 48.8 10.4359 48.4967 9.68922 47.89C8.98922 47.2833 8.26589 46.49 7.51922 45.51C6.81922 44.4833 6.11922 43.3167 5.41922 42.01C4.76589 40.7033 4.18255 39.35 3.66922 37.95C2.31589 34.0767 1.45255 31.0433 1.07922 28.85C0.705885 26.61 0.519219 25.3967 0.519219 25.21C0.519219 24.93 0.565885 24.6733 0.659219 24.44C0.752552 24.2067 0.962552 24.09 1.28922 24.09C1.80255 24.09 2.17589 24.2533 2.40922 24.58C2.68922 24.86 2.87589 25.2333 2.96922 25.7C3.20255 26.68 3.50589 27.8233 3.87922 29.13C4.29922 30.39 4.74255 31.6967 5.20922 33.05C5.72255 34.4033 6.23589 35.7333 6.74922 37.04C7.30922 38.3 7.84589 39.4433 8.35922 40.47C8.87255 41.4967 9.36255 42.3367 9.82922 42.99C10.2959 43.5967 10.6926 43.9 11.0192 43.9C11.3459 43.9 11.5792 43.6433 11.7192 43.13C11.9059 42.57 12.0459 41.94 12.1392 41.24C12.2326 40.54 12.2792 39.8633 12.2792 39.21C12.3259 38.5567 12.3492 38.1133 12.3492 37.88C12.1159 37.46 11.9292 36.97 11.7892 36.41C11.6959 35.85 11.6492 35.3833 11.6492 35.01C11.6492 34.4033 11.7892 33.89 12.0692 33.47C12.3959 33.05 12.6992 32.84 12.9792 32.84C13.1659 32.84 13.2826 32.8633 13.3292 32.91C13.4226 32.9567 13.5392 33.0033 13.6792 33.05C13.8192 33.05 13.9359 33.05 14.0292 33.05C14.1226 33.0033 14.2392 32.98 14.3792 32.98C14.4726 32.98 14.5659 33.0267 14.6592 33.12C14.7992 33.1667 14.9392 33.3533 15.0792 33.68C15.6859 35.2667 16.5492 36.9 17.6692 38.58C18.7892 40.26 20.0492 41.7767 21.4492 43.13C22.8492 44.4833 24.3659 45.6033 25.9992 46.49C27.6326 47.3767 29.2892 47.82 30.9692 47.82C31.5759 47.82 32.1359 47.6333 32.6492 47.26C33.1626 46.84 33.4192 46.3033 33.4192 45.65C33.4192 43.69 33.2092 41.6833 32.7892 39.63C32.4159 37.5767 31.8792 35.4767 31.1792 33.33C30.5259 31.1833 29.7559 29.0133 28.8692 26.82C27.9826 24.58 27.0726 22.2933 26.1392 19.96C25.3459 18 24.5759 16.46 23.8292 15.34C23.1292 14.1733 22.4992 13.2633 21.9392 12.61C21.4259 11.91 21.0059 11.35 20.6792 10.93C20.3526 10.4633 20.1892 9.90333 20.1892 9.25C20.1892 8.45667 20.4692 7.87333 21.0292 7.5C21.6359 7.12666 22.2659 6.94 22.9192 6.94C23.2926 6.94 23.7126 7.31333 24.1792 8.06C24.6459 8.76 25.1359 9.69333 25.6492 10.86C26.1626 11.98 26.6759 13.24 27.1892 14.64C27.7026 16.04 28.2159 17.44 28.7292 18.84C29.4759 20.8933 30.3159 23.11 31.2492 25.49C32.1826 27.8233 33.0459 30.18 33.8392 32.56C34.6792 34.8933 35.3792 37.1567 35.9392 39.35C36.4992 41.5433 36.7792 43.48 36.7792 45.16Z" fill="url(#paint0_linear_1670_4699)"/>
<path d="M51.6 45.525C51.7167 45.6417 51.775 45.7117 51.775 45.735C51.775 45.7817 51.705 45.9217 51.565 46.155C51.4483 46.3883 51.285 46.6333 51.075 46.89C50.865 47.1467 50.6317 47.38 50.375 47.59C50.1417 47.7767 49.9083 47.87 49.675 47.87C49.185 47.87 48.7883 47.7767 48.485 47.59C48.1817 47.38 47.925 47.1233 47.715 46.82C47.5283 46.5167 47.3767 46.19 47.26 45.84C47.1667 45.4667 47.085 45.1167 47.015 44.79C46.9683 44.6267 46.9217 44.545 46.875 44.545C46.805 44.545 46.665 44.8017 46.455 45.315C46.245 45.805 46.0117 46.3533 45.755 46.96C45.5217 47.5433 45.2883 48.0917 45.055 48.605C44.845 49.095 44.705 49.34 44.635 49.34C44.215 49.34 43.8533 49.165 43.55 48.815C43.27 48.4417 43.0367 48.0217 42.85 47.555C42.6867 47.065 42.5583 46.575 42.465 46.085C42.3717 45.5717 42.3133 45.175 42.29 44.895C42.22 44.265 42.0683 43.215 41.835 41.745C41.6017 40.275 41.4033 38.49 41.24 36.39C41.1933 35.9467 41.135 35.55 41.065 35.2C41.0183 34.8267 40.96 34.4183 40.89 33.975C40.82 33.5317 40.7617 33.03 40.715 32.47C40.6683 31.91 40.645 31.2217 40.645 30.405C40.645 30.3583 40.6567 30.2067 40.68 29.95C40.7033 29.6933 40.7383 29.4133 40.785 29.11C40.8317 28.8067 40.9017 28.5383 40.995 28.305C41.1117 28.0717 41.24 27.955 41.38 27.955C41.5433 27.955 41.695 28.06 41.835 28.27C41.975 28.4567 42.0917 28.6783 42.185 28.935C42.3017 29.1917 42.3833 29.4367 42.43 29.67C42.4767 29.9033 42.5 30.0667 42.5 30.16C42.5 30.51 42.4767 30.8367 42.43 31.14C42.3833 31.4433 42.36 31.7233 42.36 31.98C42.36 32.33 42.3833 32.7733 42.43 33.31C42.5 33.8467 42.5817 34.395 42.675 34.955C42.7683 35.515 42.85 36.0633 42.92 36.6C42.99 37.1133 43.0483 37.5333 43.095 37.86C43.095 37.8833 43.1183 38.0467 43.165 38.35C43.2117 38.6533 43.2583 39.0383 43.305 39.505C43.375 39.9483 43.4333 40.4383 43.48 40.975C43.55 41.4883 43.62 42.0017 43.69 42.515C43.76 43.005 43.8183 43.4483 43.865 43.845C43.935 44.2183 43.9817 44.4867 44.005 44.65C44.005 44.72 44.0167 44.825 44.04 44.965C44.0867 45.0817 44.1217 45.2217 44.145 45.385C44.1917 45.5483 44.2383 45.7 44.285 45.84C44.3317 45.98 44.39 46.085 44.46 46.155C44.6 45.875 44.775 45.4433 44.985 44.86C45.2183 44.2767 45.4517 43.6817 45.685 43.075C45.9417 42.4683 46.175 41.9433 46.385 41.5C46.6183 41.0333 46.8167 40.8 46.98 40.8C47.1667 40.8 47.3183 40.835 47.435 40.905C47.5517 40.975 47.7033 41.0333 47.89 41.08C48.1233 41.1733 48.24 41.3017 48.24 41.465C48.24 41.605 48.2633 41.78 48.31 41.99C48.3567 42.27 48.4267 42.6433 48.52 43.11C48.6367 43.5533 48.765 43.9967 48.905 44.44C49.045 44.86 49.2083 45.2217 49.395 45.525C49.5817 45.8283 49.7683 45.98 49.955 45.98C50.0483 45.98 50.1767 45.8633 50.34 45.63C50.5033 45.3733 50.725 45.2333 51.005 45.21C51.0517 45.21 51.1333 45.245 51.25 45.315C51.3667 45.3617 51.4833 45.4317 51.6 45.525ZM70.4576 44.72C70.4576 45.14 70.2593 45.665 69.8626 46.295C69.4893 46.9017 68.976 47.4967 68.3226 48.08C67.6693 48.6633 66.911 49.165 66.0476 49.585C65.1843 49.9817 64.286 50.18 63.3526 50.18C62.9326 50.18 62.4893 50.11 62.0226 49.97C61.556 49.83 61.101 49.6317 60.6576 49.375C60.2143 49.095 59.8176 48.7683 59.4676 48.395C59.1176 47.9983 58.861 47.555 58.6976 47.065C58.5576 47.205 58.3826 47.4383 58.1726 47.765C57.986 48.0917 57.776 48.43 57.5426 48.78C57.3093 49.1067 57.0526 49.3983 56.7726 49.655C56.4926 49.8883 56.201 50.005 55.8976 50.005C55.5943 50.005 55.3376 49.8533 55.1276 49.55C54.941 49.2233 54.7893 48.8733 54.6726 48.5C54.556 48.1033 54.4743 47.73 54.4276 47.38C54.381 47.03 54.3576 46.8317 54.3576 46.785C54.3576 46.505 54.4393 45.98 54.6026 45.21C54.766 44.4167 55.011 43.6 55.3376 42.76C55.6643 41.92 56.0726 41.1733 56.5626 40.52C57.076 39.8667 57.671 39.54 58.3476 39.54C58.6043 39.54 58.7676 39.6567 58.8376 39.89C58.931 40.1 58.9776 40.31 58.9776 40.52V41.57C59.0943 41.6633 59.211 41.7333 59.3276 41.78C59.4676 41.8033 59.5843 41.85 59.6776 41.92C59.7943 41.9667 59.876 42.0483 59.9226 42.165C59.9926 42.2817 60.0276 42.4683 60.0276 42.725C60.0276 42.8883 60.016 43.04 59.9926 43.18C59.9693 43.2967 59.9576 43.4133 59.9576 43.53C59.9576 44.1367 60.0043 44.7317 60.0976 45.315C60.191 45.8983 60.3776 46.4233 60.6576 46.89C60.9376 47.3333 61.3226 47.7067 61.8126 48.01C62.3026 48.29 62.956 48.43 63.7726 48.43C64.7993 48.43 65.6626 48.22 66.3626 47.8C67.086 47.3567 67.681 46.8783 68.1476 46.365C68.6376 45.8283 69.0226 45.35 69.3026 44.93C69.5826 44.4867 69.816 44.265 70.0026 44.265C70.306 44.265 70.4576 44.4167 70.4576 44.72ZM58.1726 43.18C58.1726 43.0867 58.1493 43.005 58.1026 42.935C58.056 42.8417 58.0326 42.76 58.0326 42.69C58.0326 42.5967 58.056 42.515 58.1026 42.445C58.1493 42.375 58.1726 42.2817 58.1726 42.165C58.1726 42.095 58.1493 42.0483 58.1026 42.025C58.056 41.9783 58.0326 41.9317 58.0326 41.885C57.8226 41.9317 57.601 42.13 57.3676 42.48C57.1576 42.83 56.9476 43.2383 56.7376 43.705C56.551 44.1717 56.3993 44.65 56.2826 45.14C56.166 45.6067 56.1076 45.9917 56.1076 46.295C56.1076 46.4583 56.1543 46.7267 56.2476 47.1C56.341 47.4733 56.446 47.7183 56.5626 47.835C56.9593 47.0183 57.321 46.225 57.6476 45.455C57.9976 44.685 58.1726 43.9267 58.1726 43.18ZM82.1233 41.885C82.1233 42.4917 81.9483 43.075 81.5983 43.635C81.2716 44.195 80.8633 44.72 80.3733 45.21C79.8833 45.6767 79.3466 46.12 78.7633 46.54C78.1799 46.9367 77.6433 47.2867 77.1533 47.59C76.6866 47.9167 76.3016 48.185 75.9983 48.395C75.6949 48.605 75.5433 48.7683 75.5433 48.885C75.5433 49.1883 75.5783 49.62 75.6483 50.18C75.7183 50.7167 75.7999 51.3117 75.8933 51.965C76.0099 52.595 76.1149 53.2483 76.2083 53.925C76.3249 54.6017 76.4066 55.22 76.4533 55.78C76.4533 55.8033 76.4649 55.9083 76.4883 56.095C76.5349 56.2817 76.5816 56.4917 76.6283 56.725C76.6983 56.9583 76.7449 57.1683 76.7683 57.355C76.8149 57.565 76.8383 57.6933 76.8383 57.74C76.8383 57.9033 76.8266 58.0783 76.8033 58.265C76.8033 58.475 76.7683 58.6617 76.6983 58.825C76.6516 59.0117 76.5699 59.1633 76.4533 59.28C76.3366 59.3967 76.1849 59.455 75.9983 59.455C75.7416 59.455 75.5549 59.3383 75.4383 59.105C75.3216 58.895 75.2633 58.685 75.2633 58.475C75.2633 58.4283 75.2633 58.3817 75.2633 58.335C75.2866 58.2883 75.2983 58.23 75.2983 58.16C75.2983 57.9033 75.2049 57.215 75.0183 56.095C74.8316 54.975 74.6216 53.6333 74.3883 52.07C74.1549 50.53 73.9449 48.8733 73.7583 47.1C73.5716 45.3033 73.4783 43.6117 73.4783 42.025C73.4783 41.9083 73.4899 41.78 73.5133 41.64C73.5366 41.4767 73.5483 41.3367 73.5483 41.22C73.3149 41.2433 72.9649 41.3483 72.4983 41.535C72.0549 41.7217 71.6116 41.955 71.1683 42.235C70.7249 42.4917 70.3283 42.7717 69.9783 43.075C69.6516 43.355 69.4883 43.6117 69.4883 43.845H69.2433C69.1733 43.845 69.0916 43.7983 68.9983 43.705C68.8816 43.6117 68.7883 43.5067 68.7183 43.39C68.6249 43.2733 68.5433 43.1567 68.4733 43.04C68.4033 42.9233 68.3683 42.8417 68.3683 42.795C68.3683 42.305 68.6599 41.85 69.2433 41.43C69.8266 40.9867 70.5499 40.6017 71.4133 40.275C72.2999 39.925 73.2683 39.6567 74.3183 39.47C75.3683 39.26 76.3599 39.155 77.2933 39.155C78.2033 39.155 78.9616 39.26 79.5683 39.47C80.1983 39.68 80.6999 39.9367 81.0733 40.24C81.4466 40.52 81.7149 40.8117 81.8783 41.115C82.0416 41.4183 82.1233 41.675 82.1233 41.885ZM80.4083 41.78C80.4083 41.5467 80.1166 41.3133 79.5333 41.08C78.9499 40.8233 78.2616 40.695 77.4683 40.695C76.7683 40.695 76.2549 40.7183 75.9283 40.765C75.6016 40.8117 75.3799 40.8583 75.2633 40.905C75.2166 41.2783 75.1816 41.7217 75.1583 42.235C75.1349 42.7483 75.1233 43.2733 75.1233 43.81C75.1233 44.37 75.1349 44.9183 75.1583 45.455C75.2049 45.9683 75.2516 46.4 75.2983 46.75C75.6249 46.54 76.0683 46.26 76.6283 45.91C77.2116 45.5367 77.7833 45.1283 78.3433 44.685C78.9033 44.2183 79.3816 43.74 79.7783 43.25C80.1983 42.7367 80.4083 42.2467 80.4083 41.78ZM86.1466 35.9C86.1466 35.9467 86.065 36.04 85.9016 36.18C85.7383 36.32 85.54 36.4717 85.3066 36.635C85.0966 36.775 84.875 36.9033 84.6416 37.02C84.4083 37.1367 84.2216 37.195 84.0816 37.195C83.9883 37.195 83.86 37.195 83.6966 37.195C83.5566 37.1717 83.405 37.125 83.2416 37.055C83.1016 36.985 82.9733 36.8917 82.8566 36.775C82.74 36.635 82.6816 36.46 82.6816 36.25C82.6816 35.9233 82.7983 35.62 83.0316 35.34C83.265 35.0367 83.5683 34.885 83.9416 34.885C84.0116 34.885 84.1633 34.92 84.3966 34.99C84.6533 35.0367 84.91 35.1067 85.1666 35.2C85.4233 35.2933 85.645 35.3983 85.8316 35.515C86.0416 35.6317 86.1466 35.76 86.1466 35.9ZM87.3016 48.99C87.3016 49.1533 87.1733 49.2933 86.9166 49.41C86.6833 49.5267 86.5083 49.585 86.3916 49.585C86.1583 49.585 85.9483 49.4333 85.7616 49.13C85.575 48.8267 85.4116 48.4767 85.2716 48.08C85.1316 47.6833 85.015 47.31 84.9216 46.96C84.8283 46.5867 84.7583 46.33 84.7116 46.19C84.6416 45.9567 84.5483 45.6767 84.4316 45.35C84.315 45.0233 84.1983 44.7083 84.0816 44.405C83.9883 44.1017 83.9066 43.8333 83.8366 43.6C83.7666 43.3667 83.7316 43.2383 83.7316 43.215C83.7316 42.8883 83.79 42.585 83.9066 42.305C84.0466 42.025 84.21 41.885 84.3966 41.885C84.6066 41.885 84.8283 42.0483 85.0616 42.375C85.295 42.7017 85.5166 43.1217 85.7266 43.635C85.96 44.125 86.17 44.6733 86.3566 45.28C86.5433 45.8633 86.7066 46.4233 86.8466 46.96C86.9866 47.4733 87.0916 47.9283 87.1616 48.325C87.255 48.6983 87.3016 48.92 87.3016 48.99Z" fill="url(#paint1_linear_1670_4699)"/>
<g filter="url(#filter0_d_1670_4699)">
<ellipse rx="11.5" ry="9" transform="matrix(-1 0 0 1 70.5 20)" fill="url(#paint2_linear_1670_4699)"/>
</g>
<path d="M76.9029 19.338L66.5423 23.1141L84.0311 27.7112L76.9029 19.338Z" fill="url(#paint3_linear_1670_4699)"/>
<circle cx="65.5" cy="22.5" r="1.5" fill="white"/>
<circle cx="70.5" cy="22.5" r="1.5" fill="white"/>
<circle cx="75.5" cy="22.5" r="1.5" fill="white"/>
<defs>
<filter id="filter0_d_1670_4699" x="55" y="11" width="31" height="26" filterUnits="userSpaceOnUse" color-interpolation-filters="sRGB">
<feFlood flood-opacity="0" result="BackgroundImageFix"/>
<feColorMatrix in="SourceAlpha" type="matrix" values="0 0 0 0 0 0 0 0 0 0 0 0 0 0 0 0 0 0 127 0" result="hardAlpha"/>
<feOffset dy="4"/>
<feGaussianBlur stdDeviation="2"/>
<feComposite in2="hardAlpha" operator="out"/>
<feColorMatrix type="matrix" values="0 0 0 0 0 0 0 0 0 0 0 0 0 0 0 0 0 0 0.25 0"/>
<feBlend mode="normal" in2="BackgroundImageFix" result="effect1_dropShadow_1670_4699"/>
<feBlend mode="normal" in="SourceGraphic" in2="effect1_dropShadow_1670_4699" result="shape"/>
</filter>
<linearGradient id="paint0_linear_1670_4699" x1="20" y1="0" x2="20" y2="70" gradientUnits="userSpaceOnUse">
<stop stop-color="#37C0FA"/>
<stop offset="1" stop-color="#6E7BFA"/>
</linearGradient>
<linearGradient id="paint1_linear_1670_4699" x1="64" y1="26" x2="64" y2="61" gradientUnits="userSpaceOnUse">
<stop stop-color="#37C0FA"/>
<stop offset="1" stop-color="#6E7BFA"/>
</linearGradient>
<linearGradient id="paint2_linear_1670_4699" x1="11.5" y1="0" x2="11.5" y2="18" gradientUnits="userSpaceOnUse">
<stop stop-color="#6E7BFA"/>
<stop offset="1" stop-color="#37C0FA"/>
</linearGradient>
<linearGradient id="paint3_linear_1670_4699" x1="76.9029" y1="19.338" x2="74.7721" y2="27.4439" gradientUnits="userSpaceOnUse">
<stop stop-color="#559CFB"/>
<stop offset="1" stop-color="#43B3FB"/>
</linearGradient>
</defs>
</svg>
