<svg width="71" height="50" viewBox="0 0 71 50" fill="none" xmlns="http://www.w3.org/2000/svg">
<g filter="url(#filter0_d_1871_5540)">
<ellipse cx="35.3628" cy="18.946" rx="22.23" ry="18.946" fill="url(#paint0_linear_1871_5540)"/>
</g>
<path d="M20.9683 20.0779L42.4836 27.9671L6.16548 37.5715L20.9683 20.0779Z" fill="url(#paint1_linear_1871_5540)"/>
<path d="M41.3044 24.1556C41.3044 24.8356 41.1144 25.4156 40.7344 25.8956C40.3744 26.3756 39.7444 26.6156 38.8444 26.6156C38.2244 26.6156 37.5944 26.5056 36.9544 26.2856C36.3344 26.0656 35.7244 25.7756 35.1244 25.4156C34.5244 25.0556 33.9444 24.6356 33.3844 24.1556C32.8444 23.6756 32.3544 23.1756 31.9144 22.6556C31.8744 22.8356 31.8144 23.0956 31.7344 23.4356C31.6544 23.7756 31.5544 24.1156 31.4344 24.4556C31.3144 24.7956 31.1744 25.0956 31.0144 25.3556C30.8744 25.5956 30.7244 25.7156 30.5644 25.7156C30.3044 25.7156 30.0144 25.5856 29.6944 25.3256C29.3944 25.0656 29.0844 24.7256 28.7644 24.3056C28.4644 23.8656 28.1644 23.3656 27.8644 22.8056C27.5844 22.2456 27.3344 21.6656 27.1144 21.0656C26.5344 19.4056 26.1644 18.1056 26.0044 17.1656C25.8444 16.2056 25.7644 15.6856 25.7644 15.6056C25.7644 15.4856 25.7844 15.3756 25.8244 15.2756C25.8644 15.1756 25.9544 15.1256 26.0944 15.1256C26.3144 15.1256 26.4744 15.1956 26.5744 15.3356C26.6944 15.4556 26.7744 15.6156 26.8144 15.8156C26.9144 16.2356 27.0444 16.7256 27.2044 17.2856C27.3844 17.8256 27.5744 18.3856 27.7744 18.9656C27.9944 19.5456 28.2144 20.1156 28.4344 20.6756C28.6744 21.2156 28.9044 21.7056 29.1244 22.1456C29.3444 22.5856 29.5544 22.9456 29.7544 23.2256C29.9544 23.4856 30.1244 23.6156 30.2644 23.6156C30.4044 23.6156 30.5044 23.5056 30.5644 23.2856C30.6444 23.0456 30.7044 22.7756 30.7444 22.4756C30.7844 22.1756 30.8044 21.8856 30.8044 21.6056C30.8244 21.3256 30.8344 21.1356 30.8344 21.0356C30.7344 20.8556 30.6544 20.6456 30.5944 20.4056C30.5544 20.1656 30.5344 19.9656 30.5344 19.8056C30.5344 19.5456 30.5944 19.3256 30.7144 19.1456C30.8544 18.9656 30.9844 18.8756 31.1044 18.8756C31.1844 18.8756 31.2344 18.8856 31.2544 18.9056C31.2944 18.9256 31.3444 18.9456 31.4044 18.9656C31.4644 18.9656 31.5144 18.9656 31.5544 18.9656C31.5944 18.9456 31.6444 18.9356 31.7044 18.9356C31.7444 18.9356 31.7844 18.9556 31.8244 18.9956C31.8844 19.0156 31.9444 19.0956 32.0044 19.2356C32.2644 19.9156 32.6344 20.6156 33.1144 21.3356C33.5944 22.0556 34.1344 22.7056 34.7344 23.2856C35.3344 23.8656 35.9844 24.3456 36.6844 24.7256C37.3844 25.1056 38.0944 25.2956 38.8144 25.2956C39.0744 25.2956 39.3144 25.2156 39.5344 25.0556C39.7544 24.8756 39.8644 24.6456 39.8644 24.3656C39.8644 23.5256 39.7744 22.6656 39.5944 21.7856C39.4344 20.9056 39.2044 20.0056 38.9044 19.0856C38.6244 18.1656 38.2944 17.2356 37.9144 16.2956C37.5344 15.3356 37.1444 14.3556 36.7444 13.3556C36.4044 12.5156 36.0744 11.8556 35.7544 11.3756C35.4544 10.8756 35.1844 10.4856 34.9444 10.2056C34.7244 9.90562 34.5444 9.66562 34.4044 9.48562C34.2644 9.28562 34.1944 9.04562 34.1944 8.76562C34.1944 8.42562 34.3144 8.17562 34.5544 8.01562C34.8144 7.85562 35.0844 7.77562 35.3644 7.77562C35.5244 7.77562 35.7044 7.93562 35.9044 8.25562C36.1044 8.55562 36.3144 8.95562 36.5344 9.45562C36.7544 9.93562 36.9744 10.4756 37.1944 11.0756C37.4144 11.6756 37.6344 12.2756 37.8544 12.8756C38.1744 13.7556 38.5344 14.7056 38.9344 15.7256C39.3344 16.7256 39.7044 17.7356 40.0444 18.7556C40.4044 19.7556 40.7044 20.7256 40.9444 21.6656C41.1844 22.6056 41.3044 23.4356 41.3044 24.1556Z" fill="white"/>
<g filter="url(#filter1_d_1871_5540)">
<ellipse cx="54.0577" cy="31.3246" rx="11.6202" ry="9.09408" fill="#FBFBFB"/>
</g>
<circle cx="49.2631" cy="34.1029" r="1.26307" fill="url(#paint2_linear_1871_5540)"/>
<path d="M54.3763 36.9577L56.4504 22.5946L67.1517 43.8416L54.3763 36.9577Z" fill="#FBFBFB"/>
<circle cx="53.8099" cy="34.1029" r="1.26307" fill="url(#paint3_linear_1871_5540)"/>
<circle cx="58.3568" cy="34.1029" r="1.26307" fill="url(#paint4_linear_1871_5540)"/>
<defs>
<filter id="filter0_d_1871_5540" x="9.13281" y="0" width="52.4609" height="45.8926" filterUnits="userSpaceOnUse" color-interpolation-filters="sRGB">
<feFlood flood-opacity="0" result="BackgroundImageFix"/>
<feColorMatrix in="SourceAlpha" type="matrix" values="0 0 0 0 0 0 0 0 0 0 0 0 0 0 0 0 0 0 127 0" result="hardAlpha"/>
<feOffset dy="4"/>
<feGaussianBlur stdDeviation="2"/>
<feComposite in2="hardAlpha" operator="out"/>
<feColorMatrix type="matrix" values="0 0 0 0 0 0 0 0 0 0 0 0 0 0 0 0 0 0 0.25 0"/>
<feBlend mode="normal" in2="BackgroundImageFix" result="effect1_dropShadow_1871_5540"/>
<feBlend mode="normal" in="SourceGraphic" in2="effect1_dropShadow_1871_5540" result="shape"/>
</filter>
<filter id="filter1_d_1871_5540" x="38.4375" y="22.2305" width="31.2422" height="26.1875" filterUnits="userSpaceOnUse" color-interpolation-filters="sRGB">
<feFlood flood-opacity="0" result="BackgroundImageFix"/>
<feColorMatrix in="SourceAlpha" type="matrix" values="0 0 0 0 0 0 0 0 0 0 0 0 0 0 0 0 0 0 127 0" result="hardAlpha"/>
<feOffset dy="4"/>
<feGaussianBlur stdDeviation="2"/>
<feComposite in2="hardAlpha" operator="out"/>
<feColorMatrix type="matrix" values="0 0 0 0 0 0 0 0 0 0 0 0 0 0 0 0 0 0 0.25 0"/>
<feBlend mode="normal" in2="BackgroundImageFix" result="effect1_dropShadow_1871_5540"/>
<feBlend mode="normal" in="SourceGraphic" in2="effect1_dropShadow_1871_5540" result="shape"/>
</filter>
<linearGradient id="paint0_linear_1871_5540" x1="35.3628" y1="0" x2="35.3628" y2="37.892" gradientUnits="userSpaceOnUse">
<stop stop-color="#6E7CFB"/>
<stop offset="1" stop-color="#39BFFB"/>
</linearGradient>
<linearGradient id="paint1_linear_1871_5540" x1="20.9669" y1="19.957" x2="6.31534" y2="37.3873" gradientUnits="userSpaceOnUse">
<stop stop-color="#539FFC"/>
<stop offset="0.374897" stop-color="#40B7FC"/>
<stop offset="1" stop-color="#6A83FC"/>
</linearGradient>
<linearGradient id="paint2_linear_1871_5540" x1="49.2631" y1="32.8398" x2="49.2631" y2="35.366" gradientUnits="userSpaceOnUse">
<stop stop-color="#6E7EFC"/>
<stop offset="1" stop-color="#3BBEFC"/>
</linearGradient>
<linearGradient id="paint3_linear_1871_5540" x1="53.8099" y1="32.8398" x2="53.8099" y2="35.366" gradientUnits="userSpaceOnUse">
<stop stop-color="#6E7EFC"/>
<stop offset="1" stop-color="#3BBEFC"/>
</linearGradient>
<linearGradient id="paint4_linear_1871_5540" x1="58.3568" y1="32.8398" x2="58.3568" y2="35.366" gradientUnits="userSpaceOnUse">
<stop stop-color="#6E7EFC"/>
<stop offset="1" stop-color="#3BBEFC"/>
</linearGradient>
</defs>
</svg>
