<svg width="20" height="20" viewBox="0 0 20 20" fill="none" xmlns="http://www.w3.org/2000/svg">
<g clip-path="url(#clip0_1834_4806)">
<path d="M15.0031 12.0398L13.9432 10.9799C13.654 10.6907 13.2544 10.5458 12.8474 10.5824C12.4401 10.6189 12.0729 10.8325 11.8398 11.1684L11.4706 11.7005C10.9685 11.611 9.99713 11.3579 9.31814 10.6788C8.63889 9.99955 8.38576 9.02775 8.29646 8.52638L8.82865 8.15713C9.16459 7.924 9.37822 7.5567 9.41467 7.14943C9.45119 6.74217 9.30627 6.34279 9.01717 6.05373L7.95724 4.99381C7.53131 4.56791 6.88931 4.46627 6.35963 4.74072C5.43088 5.22189 4.8208 6.12385 4.64158 7.28041C4.34967 9.16474 5.2208 11.3878 6.91498 13.082C8.39256 14.5595 10.2723 15.411 11.9788 15.411C12.229 15.411 12.4756 15.3927 12.7165 15.3554C13.8731 15.1763 14.7751 14.5661 15.2562 13.6374C15.2562 13.6374 15.2562 13.6374 15.2563 13.6374C15.5307 13.1076 15.429 12.4656 15.0031 12.0398ZM14.1778 13.0787C13.7954 13.8167 13.071 14.0714 12.5306 14.1551C11.0449 14.3852 9.17767 13.6269 7.77381 12.2231C6.37002 10.8193 5.61166 8.95217 5.84181 7.46635C5.92549 6.92595 6.18025 6.20158 6.9183 5.81916C6.9383 5.80884 6.96041 5.80381 6.98283 5.80381C7.02408 5.80381 7.06642 5.8208 7.0983 5.85263L8.15826 6.9126C8.20228 6.9567 8.20791 7.00677 8.20482 7.04103C8.20174 7.07533 8.18736 7.12361 8.13611 7.15916L7.29889 7.7401C7.12381 7.86158 7.02517 8.06603 7.03912 8.27869C7.04439 8.359 7.18252 10.2609 8.45924 11.5376C9.73596 12.8144 11.6378 12.9526 11.7181 12.9578C11.9306 12.9714 12.1353 12.8731 12.2568 12.6979L12.8377 11.8607C12.8732 11.8095 12.9215 11.7951 12.9558 11.792C12.9901 11.7889 13.0402 11.7946 13.0843 11.8387L14.1442 12.8985C14.1935 12.9478 14.2072 13.0218 14.1778 13.0787Z" fill="#585858"/>
<path d="M17.0709 2.92906C15.1821 1.0402 12.6708 0 9.99959 0C7.32834 0 4.81709 1.0402 2.92826 2.92902C1.32291 4.53438 0.303771 6.65902 0.0584589 8.9116C-0.173455 11.0411 0.289357 13.2086 1.36311 15.046L0.320998 18.9352C0.264826 19.1447 0.324748 19.3684 0.478224 19.5218C0.631623 19.6752 0.855334 19.7351 1.06479 19.679L4.95393 18.6369C6.48143 19.5296 8.23725 20 10.0096 20C10.369 20 10.7292 19.9807 11.0883 19.9415C13.3409 19.6962 15.4656 18.6771 17.0709 17.0717C18.9598 15.1829 20 12.6716 20 10.0004C20 7.32922 18.9597 4.81789 17.0709 2.92906ZM16.2121 16.2128C13.3085 19.1164 8.84877 19.6323 5.36686 17.4677C5.26967 17.4073 5.15846 17.3761 5.04615 17.3761C4.99358 17.3761 4.94076 17.383 4.88901 17.3968L1.76647 18.2335L2.60319 15.111C2.64662 14.9488 2.62096 14.7758 2.53233 14.6332C0.3676 11.1511 0.883615 6.69141 3.78709 3.78789C7.21272 0.362344 12.7865 0.362344 16.2121 3.78789C19.6376 7.21344 19.6376 12.7873 16.2121 16.2128Z" fill="#585858"/>
</g>
<defs>
<clipPath id="clip0_1834_4806">
<rect width="20" height="20" fill="white"/>
</clipPath>
</defs>
</svg>
