<svg width="56" height="56" viewBox="0 0 56 56" fill="none" xmlns="http://www.w3.org/2000/svg">
<rect width="53.44" height="55.8492" fill="white"/>
<path d="M50.8041 0H5.19591C2.32629 0 0 2.32629 0 5.19591V50.8041C0 53.6737 2.32629 56 5.19591 56H50.8041C53.6737 56 56 53.6737 56 50.8041V5.19591C56 2.32629 53.6737 0 50.8041 0Z" fill="url(#paint0_linear_1871_5555)"/>
<path d="M40.3422 15.6545C37.4291 12.7123 33.5604 10.9079 29.434 10.5668C25.3077 10.2258 21.1952 11.3705 17.8386 13.7945C14.4819 16.2186 12.1019 19.7623 11.1279 23.7866C10.1539 27.8108 10.65 32.0507 12.5268 35.7413L10.6845 44.6854C10.6654 44.7744 10.6649 44.8664 10.6829 44.9557C10.701 45.0449 10.7373 45.1295 10.7895 45.2041C10.866 45.3172 10.9753 45.4044 11.1026 45.4538C11.23 45.5033 11.3694 45.5127 11.5023 45.4809L20.2682 43.4031C23.9484 45.2324 28.1584 45.6966 32.1488 44.7132C36.1392 43.7298 39.6514 41.3626 42.0603 38.0328C44.4692 34.7029 45.6186 30.6264 45.304 26.5286C44.9894 22.4309 43.2312 18.5776 40.3422 15.6545ZM37.6091 37.469C35.5935 39.479 32.9979 40.8058 30.1883 41.2625C27.3787 41.7191 24.4966 41.2826 21.9482 40.0145L20.7263 39.41L15.3523 40.6827L15.3682 40.6159L16.4818 35.2068L15.8836 34.0263C14.5815 31.469 14.1221 28.5652 14.5714 25.7308C15.0206 22.8965 16.3554 20.277 18.3845 18.2477C20.9341 15.6989 24.3917 14.267 27.9968 14.267C31.6019 14.267 35.0595 15.6989 37.6091 18.2477C37.6308 18.2726 37.6542 18.296 37.6791 18.3177C40.1971 20.8731 41.6027 24.3203 41.5896 27.9078C41.5765 31.4953 40.1457 34.9321 37.6091 37.469Z" fill="white"/>
<path d="M37.1308 33.502C36.4722 34.5392 35.4317 35.8088 34.124 36.1238C31.8331 36.6774 28.3172 36.1429 23.9422 32.0638L23.8881 32.0161C20.0413 28.4492 19.0422 25.4806 19.284 23.1261C19.4176 21.7897 20.5313 20.5806 21.4699 19.7915C21.6183 19.6649 21.7943 19.5747 21.9837 19.5282C22.1732 19.4817 22.3709 19.4802 22.5611 19.5238C22.7513 19.5674 22.9286 19.6549 23.0789 19.7793C23.2292 19.9037 23.3483 20.0615 23.4267 20.2401L24.8426 23.422C24.9346 23.6283 24.9687 23.8557 24.9413 24.08C24.9138 24.3042 24.8258 24.5167 24.6867 24.6947L23.9708 25.6238C23.8172 25.8156 23.7245 26.049 23.7046 26.294C23.6848 26.539 23.7387 26.7843 23.8594 26.9983C24.2603 27.7015 25.2213 28.7356 26.2872 29.6933C27.4835 30.7751 28.8103 31.7647 29.6503 32.102C29.8751 32.1938 30.1222 32.2162 30.3598 32.1663C30.5975 32.1164 30.8147 31.9965 30.9835 31.822L31.814 30.9851C31.9742 30.8271 32.1735 30.7144 32.3915 30.6585C32.6095 30.6027 32.8384 30.6056 33.0549 30.667L36.4181 31.6215C36.6036 31.6784 36.7736 31.777 36.9152 31.9097C37.0568 32.0424 37.1662 32.2057 37.2349 32.3872C37.3037 32.5687 37.3301 32.7634 37.312 32.9566C37.294 33.1499 37.232 33.3364 37.1308 33.502Z" fill="white"/>
<defs>
<linearGradient id="paint0_linear_1871_5555" x1="28" y1="0.229091" x2="28" y2="53.2891" gradientUnits="userSpaceOnUse">
<stop stop-color="#35DB23"/>
<stop offset="1" stop-color="#27A11A"/>
</linearGradient>
</defs>
</svg>
