<svg width="140" height="98" viewBox="0 0 140 98" fill="none" xmlns="http://www.w3.org/2000/svg">
<g filter="url(#filter0_d_1235_4512)">
<ellipse cx="70" cy="37.5" rx="44" ry="37.5" fill="#3C6DB2"/>
</g>
<path d="M41.5028 39.7393L84.0883 55.3544L12.2034 74.3645L41.5028 39.7393Z" fill="#3C6DB2"/>
<path d="M83.925 50.6C83.925 52.3 83.45 53.75 82.5 54.95C81.6 56.15 80.025 56.75 77.775 56.75C76.225 56.75 74.65 56.475 73.05 55.925C71.5 55.375 69.975 54.65 68.475 53.75C66.975 52.85 65.525 51.8 64.125 50.6C62.775 49.4 61.55 48.15 60.45 46.85C60.35 47.3 60.2 47.95 60 48.8C59.8 49.65 59.55 50.5 59.25 51.35C58.95 52.2 58.6 52.95 58.2 53.6C57.85 54.2 57.475 54.5 57.075 54.5C56.425 54.5 55.7 54.175 54.9 53.525C54.15 52.875 53.375 52.025 52.575 50.975C51.825 49.875 51.075 48.625 50.325 47.225C49.625 45.825 49 44.375 48.45 42.875C47 38.725 46.075 35.475 45.675 33.125C45.275 30.725 45.075 29.425 45.075 29.225C45.075 28.925 45.125 28.65 45.225 28.4C45.325 28.15 45.55 28.025 45.9 28.025C46.45 28.025 46.85 28.2 47.1 28.55C47.4 28.85 47.6 29.25 47.7 29.75C47.95 30.8 48.275 32.025 48.675 33.425C49.125 34.775 49.6 36.175 50.1 37.625C50.65 39.075 51.2 40.5 51.75 41.9C52.35 43.25 52.925 44.475 53.475 45.575C54.025 46.675 54.55 47.575 55.05 48.275C55.55 48.925 55.975 49.25 56.325 49.25C56.675 49.25 56.925 48.975 57.075 48.425C57.275 47.825 57.425 47.15 57.525 46.4C57.625 45.65 57.675 44.925 57.675 44.225C57.725 43.525 57.75 43.05 57.75 42.8C57.5 42.35 57.3 41.825 57.15 41.225C57.05 40.625 57 40.125 57 39.725C57 39.075 57.15 38.525 57.45 38.075C57.8 37.625 58.125 37.4 58.425 37.4C58.625 37.4 58.75 37.425 58.8 37.475C58.9 37.525 59.025 37.575 59.175 37.625C59.325 37.625 59.45 37.625 59.55 37.625C59.65 37.575 59.775 37.55 59.925 37.55C60.025 37.55 60.125 37.6 60.225 37.7C60.375 37.75 60.525 37.95 60.675 38.3C61.325 40 62.25 41.75 63.45 43.55C64.65 45.35 66 46.975 67.5 48.425C69 49.875 70.625 51.075 72.375 52.025C74.125 52.975 75.9 53.45 77.7 53.45C78.35 53.45 78.95 53.25 79.5 52.85C80.05 52.4 80.325 51.825 80.325 51.125C80.325 49.025 80.1 46.875 79.65 44.675C79.25 42.475 78.675 40.225 77.925 37.925C77.225 35.625 76.4 33.3 75.45 30.95C74.5 28.55 73.525 26.1 72.525 23.6C71.675 21.5 70.85 19.85 70.05 18.65C69.3 17.4 68.625 16.425 68.025 15.725C67.475 14.975 67.025 14.375 66.675 13.925C66.325 13.425 66.15 12.825 66.15 12.125C66.15 11.275 66.45 10.65 67.05 10.25C67.7 9.85 68.375 9.65 69.075 9.65C69.475 9.65 69.925 10.05 70.425 10.85C70.925 11.6 71.45 12.6 72 13.85C72.55 15.05 73.1 16.4 73.65 17.9C74.2 19.4 74.75 20.9 75.3 22.4C76.1 24.6 77 26.975 78 29.525C79 32.025 79.925 34.55 80.775 37.1C81.675 39.6 82.425 42.025 83.025 44.375C83.625 46.725 83.925 48.8 83.925 50.6Z" fill="white"/>
<g filter="url(#filter1_d_1235_4512)">
<ellipse cx="107" cy="62" rx="23" ry="18" fill="#FBFBFB"/>
</g>
<circle cx="97.5" cy="67.5" r="2.5" fill="#3C6DB2"/>
<path d="M107.634 73.1491L111.74 44.7202L132.921 86.7745L107.634 73.1491Z" fill="#FBFBFB"/>
<circle cx="106.5" cy="67.5" r="2.5" fill="#3C6DB2"/>
<circle cx="115.5" cy="67.5" r="2.5" fill="#3C6DB2"/>
<defs>
<filter id="filter0_d_1235_4512" x="22" y="0" width="96" height="83" filterUnits="userSpaceOnUse" color-interpolation-filters="sRGB">
<feFlood flood-opacity="0" result="BackgroundImageFix"/>
<feColorMatrix in="SourceAlpha" type="matrix" values="0 0 0 0 0 0 0 0 0 0 0 0 0 0 0 0 0 0 127 0" result="hardAlpha"/>
<feOffset dy="4"/>
<feGaussianBlur stdDeviation="2"/>
<feComposite in2="hardAlpha" operator="out"/>
<feColorMatrix type="matrix" values="0 0 0 0 0 0 0 0 0 0 0 0 0 0 0 0 0 0 0.25 0"/>
<feBlend mode="normal" in2="BackgroundImageFix" result="effect1_dropShadow_1235_4512"/>
<feBlend mode="normal" in="SourceGraphic" in2="effect1_dropShadow_1235_4512" result="shape"/>
</filter>
<filter id="filter1_d_1235_4512" x="80" y="44" width="54" height="44" filterUnits="userSpaceOnUse" color-interpolation-filters="sRGB">
<feFlood flood-opacity="0" result="BackgroundImageFix"/>
<feColorMatrix in="SourceAlpha" type="matrix" values="0 0 0 0 0 0 0 0 0 0 0 0 0 0 0 0 0 0 127 0" result="hardAlpha"/>
<feOffset dy="4"/>
<feGaussianBlur stdDeviation="2"/>
<feComposite in2="hardAlpha" operator="out"/>
<feColorMatrix type="matrix" values="0 0 0 0 0 0 0 0 0 0 0 0 0 0 0 0 0 0 0.25 0"/>
<feBlend mode="normal" in2="BackgroundImageFix" result="effect1_dropShadow_1235_4512"/>
<feBlend mode="normal" in="SourceGraphic" in2="effect1_dropShadow_1235_4512" result="shape"/>
</filter>
</defs>
</svg>
